<svg width="59" height="62" viewBox="0 0 59 62" fill="none" xmlns="http://www.w3.org/2000/svg">
<path d="M3.71808 57.514V58H0.166807V57.514L1.17612 57.4019C1.31318 57.3894 1.41287 57.3707 1.47517 57.3458C1.53747 57.3084 1.59355 57.2337 1.64339 57.1215C1.70569 56.9969 1.78046 56.7851 1.86768 56.486L5.47503 45.2902H6.65255L10.2973 56.486C10.3845 56.7851 10.453 56.9969 10.5029 57.1215C10.5652 57.2337 10.6275 57.3084 10.6898 57.3458C10.7521 57.3707 10.8455 57.3894 10.9702 57.4019L11.9982 57.514V58H7.45626V57.514L8.48426 57.4019C8.68363 57.377 8.78955 57.3271 8.80201 57.2524C8.82693 57.1651 8.77086 56.9097 8.63379 56.486L7.86746 54.0936H3.30688L2.54055 56.486C2.40349 56.9097 2.34118 57.1651 2.35364 57.2524C2.37857 57.3271 2.49071 57.377 2.69008 57.4019L3.71808 57.514ZM3.49379 53.4955H7.68055L5.58717 46.9911L3.49379 53.4955ZM12.8379 45.7948V45.2902H17.9219C19.143 45.2902 20.0589 45.5768 20.6694 46.15C21.28 46.7107 21.5853 47.4334 21.5853 48.3181V48.8228C21.5853 49.4707 21.3921 50.0252 21.0059 50.4863C20.6196 50.9473 20.0775 51.2713 19.3797 51.4582C20.252 51.6077 20.9311 51.9379 21.4171 52.4488C21.903 52.9597 22.146 53.6014 22.146 54.374V54.8786C22.146 55.7882 21.8283 56.5359 21.1928 57.1215C20.5697 57.7072 19.6352 58 18.3891 58H12.8379V57.514L13.8659 57.4019C14.0653 57.377 14.1837 57.3271 14.2211 57.2524C14.2584 57.1776 14.2771 56.9222 14.2771 56.486V46.8041C14.2771 46.368 14.2584 46.1126 14.2211 46.0378C14.1837 45.9631 14.0653 45.9132 13.8659 45.8883L12.8379 45.7948ZM17.9219 45.8883H15.9032V51.2339H17.9219C19.2178 51.2339 19.8657 50.48 19.8657 48.9723V48.206C19.8657 46.6608 19.2178 45.8883 17.9219 45.8883ZM18.3891 51.832H15.9032V57.4019H18.3891C19.7473 57.4019 20.4264 56.5982 20.4264 54.9908V54.2244C20.4264 53.4519 20.252 52.86 19.9031 52.4488C19.5667 52.0376 19.062 51.832 18.3891 51.832ZM34.3225 50.9348V52.3367C34.3225 54.1559 33.9051 55.5889 33.0703 56.6356C32.2354 57.6698 31.0392 58.1869 29.4816 58.1869C27.9116 58.1869 26.7091 57.6698 25.8743 56.6356C25.0519 55.5889 24.6407 54.1559 24.6407 52.3367V50.9348C24.6407 49.128 25.0519 47.7075 25.8743 46.6733C26.7091 45.6266 27.9116 45.1033 29.4816 45.1033C31.0392 45.1033 32.2354 45.6266 33.0703 46.6733C33.9051 47.7075 34.3225 49.128 34.3225 50.9348ZM32.5469 50.0003C32.5469 48.4427 32.2852 47.34 31.7619 46.692C31.251 46.0316 30.4909 45.7014 29.4816 45.7014C28.4723 45.7014 27.706 46.0316 27.1826 46.692C26.6717 47.34 26.4163 48.4427 26.4163 50.0003V53.2712C26.4163 54.8288 26.6717 55.9378 27.1826 56.5982C27.706 57.2586 28.4723 57.5888 29.4816 57.5888C30.4909 57.5888 31.251 57.2586 31.7619 56.5982C32.2852 55.9378 32.5469 54.8288 32.5469 53.2712V50.0003ZM44.1543 45.7948V45.2902H47.7242V45.7948L46.6962 45.8883C46.4969 45.9132 46.3785 45.9631 46.3411 46.0378C46.3037 46.1126 46.285 46.368 46.285 46.8041V53.6824C46.285 55.1029 45.9548 56.2119 45.2944 57.0094C44.6465 57.7944 43.6496 58.1869 42.3039 58.1869C40.8335 58.1869 39.7058 57.757 38.9208 56.8972C38.1482 56.0375 37.762 54.8537 37.762 53.346V46.8041C37.762 46.368 37.7433 46.1126 37.7059 46.0378C37.6685 45.9631 37.5501 45.9132 37.3508 45.8883L36.3228 45.7948V45.2902H40.8273V45.7948L39.7993 45.8883C39.5999 45.9132 39.4815 45.9631 39.4441 46.0378C39.4068 46.1126 39.3881 46.368 39.3881 46.8041V53.6263C39.3881 54.9596 39.6373 55.9502 40.1357 56.5982C40.6466 57.2461 41.4192 57.5701 42.4534 57.5701C43.5001 57.5701 44.2851 57.2399 44.8084 56.5795C45.3318 55.9191 45.5935 54.9596 45.5935 53.7011V46.8041C45.5935 46.368 45.5748 46.1126 45.5374 46.0378C45.5 45.9631 45.3816 45.9132 45.1823 45.8883L44.1543 45.7948ZM48.5982 45.2902H58.5417V48.3368H58.0558L57.5137 46.3743C57.4764 46.2247 57.4327 46.1188 57.3829 46.0565C57.3455 45.9817 57.2645 45.9381 57.1399 45.9257C57.0153 45.9008 56.8035 45.8883 56.5044 45.8883H54.3924V56.486C54.3924 56.9222 54.411 57.1776 54.4484 57.2524C54.4858 57.3271 54.6042 57.377 54.8036 57.4019L55.8316 57.514V58H51.327V57.514L52.355 57.4019C52.5544 57.377 52.6728 57.3271 52.7102 57.2524C52.7476 57.1776 52.7662 56.9222 52.7662 56.486V45.8883H50.6355C50.3489 45.8883 50.1371 45.9008 50 45.9257C49.8754 45.9381 49.7882 45.9817 49.7383 46.0565C49.7009 46.1188 49.6636 46.2247 49.6262 46.3743L49.0841 48.3368H48.5982V45.2902Z" fill="black"/>
<path d="M30.8 12.6H27.2V9H30.8M30.8 27H27.2V16.2H30.8M29 0C26.6362 0 24.2956 0.465584 22.1117 1.37017C19.9278 2.27475 17.9435 3.60062 16.2721 5.27208C12.8964 8.64773 11 13.2261 11 18C11 22.7739 12.8964 27.3523 16.2721 30.7279C17.9435 32.3994 19.9278 33.7252 22.1117 34.6298C24.2956 35.5344 26.6362 36 29 36C33.7739 36 38.3523 34.1036 41.7279 30.7279C45.1036 27.3523 47 22.7739 47 18C47 15.6362 46.5344 13.2956 45.6298 11.1117C44.7252 8.92784 43.3994 6.94353 41.7279 5.27208C40.0565 3.60062 38.0722 2.27475 35.8883 1.37017C33.7044 0.465584 31.3638 0 29 0Z" fill="black"/>
</svg>
