<svg width="169" height="46" viewBox="0 0 169 46" fill="none" xmlns="http://www.w3.org/2000/svg">
<rect x="30.0193" y="9.01934" width="120.961" height="30.5801" rx="12.5718" fill="#FFB800" stroke="black" stroke-width="2.03867"/>
<path d="M72.3473 17.8306V17.6045H74.5763C75.007 17.6045 75.3489 17.6637 75.6019 17.7822C75.855 17.9006 76.0353 18.0567 76.143 18.2506C76.2561 18.4444 76.3126 18.6598 76.3126 18.8967V19.1147C76.3126 19.3947 76.2238 19.637 76.0461 19.8415C75.8738 20.0408 75.6208 20.1834 75.2869 20.2696C75.6961 20.3396 76.0084 20.4849 76.2238 20.7057C76.4445 20.9264 76.5549 21.2037 76.5549 21.5375V21.7636C76.5549 22.0059 76.4984 22.2294 76.3853 22.434C76.2722 22.6332 76.0838 22.7947 75.82 22.9185C75.5615 23.037 75.2143 23.0962 74.7782 23.0962H72.3473V22.8701L72.7915 22.8135C72.8776 22.8028 72.9287 22.7812 72.9449 22.7489C72.961 22.7112 72.9691 22.6009 72.9691 22.4178V18.2829C72.9691 18.0998 72.961 17.9921 72.9449 17.9598C72.9287 17.9221 72.8776 17.8979 72.7915 17.8871L72.3473 17.8306ZM74.5763 17.8871H73.9382V20.1484H74.5763C74.8078 20.1484 74.9828 20.0704 75.1012 19.9142C75.2196 19.7527 75.2789 19.4997 75.2789 19.1551V18.8967C75.2789 18.5467 75.2196 18.2909 75.1012 18.1294C74.9828 17.9679 74.8078 17.8871 74.5763 17.8871ZM74.7782 20.4311H73.9382V22.8135H74.7782C75.0204 22.8135 75.2035 22.7328 75.3273 22.5712C75.4565 22.4043 75.5212 22.1351 75.5212 21.7636V21.4971C75.5212 20.7864 75.2735 20.4311 74.7782 20.4311ZM80.6996 17.8306V17.6045H82.2663V17.8306L81.8222 17.8871C81.736 17.8979 81.6849 17.9221 81.6687 17.9598C81.6526 17.9921 81.6445 18.0998 81.6445 18.2829V21.2306C81.6445 21.8767 81.5072 22.364 81.2326 22.6924C80.9634 23.0154 80.5488 23.177 79.9889 23.177C79.3374 23.177 78.8125 22.9993 78.4141 22.6439C78.0157 22.2886 77.8165 21.7771 77.8165 21.1095V18.2829C77.8165 18.0998 77.8084 17.9921 77.7922 17.9598C77.7761 17.9221 77.7249 17.8979 77.6388 17.8871L77.1946 17.8306V17.6045H79.4074V17.8306L78.9632 17.8871C78.8771 17.8979 78.826 17.9221 78.8098 17.9598C78.7937 17.9921 78.7856 18.0998 78.7856 18.2829V21.166C78.7856 21.769 78.8959 22.2051 79.1167 22.4743C79.3374 22.7435 79.6524 22.8781 80.0616 22.8781C80.46 22.8781 80.7696 22.7516 80.9903 22.4986C81.2111 22.2401 81.3215 21.8229 81.3215 21.2468V18.2829C81.3215 18.0998 81.3134 17.9921 81.2972 17.9598C81.2811 17.9221 81.2299 17.8979 81.1438 17.8871L80.6996 17.8306ZM86.0992 22.8701V23.0962H83.8864V22.8701L84.3305 22.8135C84.4167 22.8028 84.4678 22.7812 84.484 22.7489C84.5001 22.7112 84.5082 22.6009 84.5082 22.4178V20.7461L83.2241 18.2829C83.1595 18.159 83.1111 18.0729 83.0787 18.0244C83.0464 17.9706 83.0141 17.9356 82.9818 17.9194C82.9549 17.9033 82.9145 17.8925 82.8607 17.8871L82.4165 17.8306V17.6045H84.7182V17.8306L84.274 17.8871C84.1932 17.8979 84.1529 17.9221 84.1529 17.9598C84.1529 17.9921 84.1959 18.0998 84.2821 18.2829L85.3239 20.3665L86.4061 18.2829C86.4976 18.1052 86.5407 17.9975 86.5353 17.9598C86.5353 17.9221 86.4949 17.8979 86.4142 17.8871L85.97 17.8306V17.6045H87.5448V17.8306L87.1006 17.8871C87.0468 17.8925 87.0037 17.9033 86.9714 17.9194C86.9445 17.9356 86.9149 17.9706 86.8826 18.0244C86.8556 18.0729 86.8099 18.159 86.7453 18.2829L85.4773 20.7299V22.4178C85.4773 22.6009 85.4854 22.7112 85.5016 22.7489C85.5177 22.7812 85.5689 22.8028 85.655 22.8135L86.0992 22.8701ZM93.0274 17.8306V17.6045H94.5941V17.8306L94.1499 17.8871C94.0638 17.8979 94.0126 17.9221 93.9965 17.9598C93.9803 17.9921 93.9723 18.0998 93.9723 18.2829V23.0962H93.5281L90.5642 18.3071V22.4178C90.5642 22.6009 90.5722 22.7112 90.5884 22.7489C90.6045 22.7812 90.6557 22.8028 90.7418 22.8135L91.186 22.8701V23.0962H89.6193V22.8701L90.0634 22.8135C90.1496 22.8028 90.2007 22.7812 90.2169 22.7489C90.233 22.7112 90.2411 22.6009 90.2411 22.4178V18.2829C90.2411 18.0998 90.233 17.9921 90.2169 17.9598C90.2007 17.9221 90.1496 17.8979 90.0634 17.8871L89.6193 17.8306V17.6045H91.2426L93.6492 21.4729V18.2829C93.6492 18.0998 93.6411 17.9921 93.625 17.9598C93.6088 17.9221 93.5577 17.8979 93.4715 17.8871L93.0274 17.8306ZM99.7266 20.0919V20.6007C99.7266 21.4298 99.5409 22.0678 99.1694 22.5147C98.8033 22.9562 98.2595 23.177 97.538 23.177C96.8166 23.177 96.2701 22.9562 95.8986 22.5147C95.5325 22.0678 95.3494 21.4298 95.3494 20.6007V20.0919C95.3494 19.2628 95.5325 18.6274 95.8986 18.186C96.2701 17.7445 96.8166 17.5237 97.538 17.5237C98.2595 17.5237 98.8033 17.7445 99.1694 18.186C99.5409 18.6274 99.7266 19.2628 99.7266 20.0919ZM98.6929 19.6881C98.6929 19.2143 98.6525 18.8428 98.5717 18.5736C98.491 18.299 98.3645 18.1025 98.1922 17.9841C98.0253 17.8656 97.8072 17.8064 97.538 17.8064C97.2742 17.8064 97.0561 17.8656 96.8839 17.9841C96.7116 18.1025 96.585 18.299 96.5043 18.5736C96.4235 18.8428 96.3831 19.2143 96.3831 19.6881V21.0045C96.3831 21.4729 96.4235 21.8444 96.5043 22.119C96.585 22.3936 96.7116 22.5928 96.8839 22.7166C97.0561 22.8351 97.2742 22.8943 97.538 22.8943C97.8072 22.8943 98.0253 22.8351 98.1922 22.7166C98.3645 22.5928 98.491 22.3936 98.5717 22.119C98.6525 21.8444 98.6929 21.4729 98.6929 21.0045V19.6881ZM105.172 23.0962L103.848 18.6867L102.596 23.0962H101.893L100.771 18.2829C100.744 18.159 100.722 18.0729 100.706 18.0244C100.69 17.9706 100.666 17.9356 100.634 17.9194C100.607 17.9033 100.564 17.8925 100.504 17.8871L100.06 17.8306V17.6045H102.297V17.8306L101.853 17.8871C101.767 17.8979 101.721 17.9195 101.716 17.9518C101.71 17.9841 101.726 18.0944 101.764 18.2829L102.604 22.0463L103.84 17.6045H104.51L105.826 21.9655L106.682 18.2829C106.726 18.0944 106.742 17.9841 106.731 17.9518C106.72 17.9195 106.674 17.8979 106.594 17.8871L106.149 17.8306V17.6045H107.716V17.8306L107.272 17.8871C107.213 17.8925 107.17 17.9033 107.143 17.9194C107.116 17.9356 107.092 17.9706 107.07 18.0244C107.054 18.0729 107.032 18.159 107.006 18.2829L105.883 23.0962H105.172Z" fill="black"/>
<path d="M83.0946 30.7862C83.0946 31.2223 82.9492 31.5884 82.6584 31.8845C82.3731 32.1806 81.9424 32.3422 81.3663 32.3691V33.2978H81.0755V32.3691C80.7956 32.3583 80.5318 32.3045 80.2841 32.2076C80.0418 32.1107 79.8372 31.9626 79.6703 31.7634C79.5034 31.5588 79.3984 31.2923 79.3553 30.9639L79.8964 30.77C79.9234 31.0877 79.9907 31.3407 80.0983 31.5292C80.2114 31.7122 80.3514 31.8468 80.5183 31.933C80.6906 32.0137 80.8763 32.0622 81.0755 32.0784V30.0351L80.6152 29.8978C80.2383 29.7848 79.9476 29.5909 79.743 29.3163C79.5438 29.0364 79.4442 28.6891 79.4442 28.2745C79.4442 28.0107 79.5007 27.7657 79.6138 27.5396C79.7322 27.3081 79.9126 27.117 80.1549 26.9662C80.3972 26.8155 80.704 26.732 81.0755 26.7159V25.7871H81.3663V26.7239C81.7647 26.7401 82.085 26.8289 82.3273 26.9904C82.575 27.152 82.7446 27.3566 82.8361 27.6042C82.933 27.8519 82.9573 28.113 82.9088 28.3876L81.9801 28.5572C82.0554 28.1265 82.0366 27.7819 81.9235 27.5235C81.8158 27.2596 81.6301 27.0954 81.3663 27.0308V29.0983L81.867 29.2517C82.2762 29.3702 82.5831 29.5506 82.7877 29.7928C82.9923 30.0297 83.0946 30.3608 83.0946 30.7862ZM80.1953 27.9353C80.1953 28.183 80.2626 28.4011 80.3972 28.5895C80.5371 28.7779 80.7633 28.9179 81.0755 29.0095V26.9985C80.8117 27.0039 80.5991 27.0874 80.4375 27.2489C80.276 27.4104 80.1953 27.6392 80.1953 27.9353ZM81.3663 30.124V32.0784C81.6516 32.0568 81.8858 31.9707 82.0689 31.8199C82.252 31.6638 82.3435 31.435 82.3435 31.1335C82.3435 30.8912 82.2708 30.6893 82.1254 30.5278C81.9854 30.3662 81.7324 30.2316 81.3663 30.124ZM83.6883 27.5154L84.8109 26.7966H85.5862V31.6099C85.5862 31.793 85.5943 31.9034 85.6104 31.9411C85.6266 31.9734 85.6777 31.9949 85.7639 32.0057L86.2081 32.0622V32.2883H83.8337V32.0622L84.4394 32.0057C84.5255 31.9949 84.5767 31.9734 84.5928 31.9411C84.609 31.9034 84.6171 31.793 84.6171 31.6099V27.265L83.8418 27.7577L83.6883 27.5154ZM90.038 30.5035H90.2641V32.2883H86.8803V31.723C86.8803 31.3892 86.9314 31.1092 87.0337 30.8831C87.1414 30.6516 87.2841 30.4524 87.4617 30.2855C87.6394 30.1186 87.8305 29.9705 88.0351 29.8413C88.2343 29.7067 88.4309 29.5694 88.6247 29.4294C88.8239 29.284 88.9881 29.1091 89.1173 28.9045C89.2465 28.6945 89.3111 28.428 89.3111 28.1049C89.3111 27.3673 89.0662 26.9985 88.5762 26.9985C88.2747 26.9985 88.0621 27.1304 87.9382 27.3943C87.8198 27.6581 87.7875 28.0323 87.8413 28.5168L86.8722 28.3876C86.8237 28.0969 86.8506 27.825 86.9529 27.5719C87.0606 27.3189 87.2491 27.1143 87.5183 26.9581C87.7929 26.7966 88.1482 26.7159 88.5843 26.7159C89.0096 26.7159 89.3515 26.7859 89.61 26.9258C89.8684 27.0604 90.0568 27.2408 90.1753 27.4669C90.2991 27.6877 90.361 27.9273 90.361 28.1857C90.361 28.5034 90.2964 28.7645 90.1672 28.9691C90.038 29.1737 89.8684 29.3433 89.6584 29.4779C89.4484 29.6071 89.2223 29.7201 88.98 29.8171C88.7377 29.9086 88.5035 30.0082 88.2774 30.1159C88.0028 30.2397 87.7686 30.4066 87.5748 30.6166C87.381 30.8212 87.2625 31.0985 87.2195 31.4484H89.4242C89.5534 31.4484 89.645 31.4457 89.6988 31.4403C89.7526 31.4296 89.7876 31.4107 89.8038 31.3838C89.8253 31.3515 89.8442 31.3031 89.8603 31.2384L90.038 30.5035ZM95.2568 29.284V29.7928C95.2568 30.3097 95.1787 30.762 95.0225 31.1496C94.8718 31.5373 94.6484 31.8388 94.3522 32.0541C94.0561 32.2641 93.6981 32.3691 93.2781 32.3691C92.8582 32.3691 92.5001 32.2641 92.204 32.0541C91.9079 31.8388 91.6818 31.5373 91.5256 31.1496C91.3749 30.762 91.2995 30.3097 91.2995 29.7928V29.284C91.2995 28.7672 91.3749 28.3176 91.5256 27.9353C91.6818 27.5477 91.9079 27.2489 92.204 27.0389C92.5001 26.8235 92.8582 26.7159 93.2781 26.7159C93.6981 26.7159 94.0561 26.8235 94.3522 27.0389C94.6484 27.2489 94.8718 27.5477 95.0225 27.9353C95.1787 28.3176 95.2568 28.7672 95.2568 29.284ZM94.1826 28.7187C94.1826 28.1049 94.1046 27.6661 93.9484 27.4023C93.7923 27.1331 93.5689 26.9985 93.2781 26.9985C92.9874 26.9985 92.7639 27.1331 92.6078 27.4023C92.4517 27.6661 92.3736 28.1049 92.3736 28.7187V30.3582C92.3736 30.9773 92.4517 31.4215 92.6078 31.6907C92.7639 31.9545 92.9874 32.0864 93.2781 32.0864C93.5689 32.0864 93.7923 31.9545 93.9484 31.6907C94.1046 31.4215 94.1826 30.9773 94.1826 30.3582V28.7187ZM100.233 29.284V29.7928C100.233 30.3097 100.155 30.762 99.9991 31.1496C99.8483 31.5373 99.6249 31.8388 99.3288 32.0541C99.0327 32.2641 98.6746 32.3691 98.2547 32.3691C97.8347 32.3691 97.4767 32.2641 97.1806 32.0541C96.8844 31.8388 96.6583 31.5373 96.5022 31.1496C96.3514 30.762 96.276 30.3097 96.276 29.7928V29.284C96.276 28.7672 96.3514 28.3176 96.5022 27.9353C96.6583 27.5477 96.8844 27.2489 97.1806 27.0389C97.4767 26.8235 97.8347 26.7159 98.2547 26.7159C98.6746 26.7159 99.0327 26.8235 99.3288 27.0389C99.6249 27.2489 99.8483 27.5477 99.9991 27.9353C100.155 28.3176 100.233 28.7672 100.233 29.284ZM99.1592 28.7187C99.1592 28.1049 99.0811 27.6661 98.925 27.4023C98.7688 27.1331 98.5454 26.9985 98.2547 26.9985C97.9639 26.9985 97.7405 27.1331 97.5844 27.4023C97.4282 27.6661 97.3502 28.1049 97.3502 28.7187V30.3582C97.3502 30.9773 97.4282 31.4215 97.5844 31.6907C97.7405 31.9545 97.9639 32.0864 98.2547 32.0864C98.5454 32.0864 98.7688 31.9545 98.925 31.6907C99.0811 31.4215 99.1592 30.9773 99.1592 30.3582V28.7187Z" fill="black"/>
</svg>
