<svg width="37" height="62" viewBox="0 0 37 62" fill="none" xmlns="http://www.w3.org/2000/svg">
<path d="M1.45455 7.59084e-05C1.06878 7.59084e-05 0.698807 0.189718 0.426026 0.527283C0.153246 0.864848 0 1.32268 0 1.80007C0 2.27746 0.153246 2.7353 0.426026 3.07286C0.698807 3.41043 1.06878 3.60007 1.45455 3.60007H4.68364L8.50036 22.5C8.82473 24.102 9.984 25.2 11.3178 25.2H29.456C30.7695 25.2 31.8851 24.12 32.2298 22.554L36 5.40006H32.9542L29.4545 21.6H11.3164L7.50109 2.70007C7.34349 1.92468 6.98018 1.23717 6.46935 0.747639C5.95852 0.258104 5.32972 -0.00513527 4.68364 7.59084e-05H1.45455ZM27.6364 25.2C25.2436 25.2 23.2727 27.639 23.2727 30.6C23.2727 33.561 25.2436 36 27.6364 36C30.0291 36 32 33.561 32 30.6C32 27.639 30.0291 25.2 27.6364 25.2ZM14.5455 25.2C12.1527 25.2 10.1818 27.639 10.1818 30.6C10.1818 33.561 12.1527 36 14.5455 36C16.9382 36 18.9091 33.561 18.9091 30.6C18.9091 27.639 16.9382 25.2 14.5455 25.2ZM18.9091 7.59084e-05V9.00006H14.5455L20.3636 16.2L26.1818 9.00006H21.8182V7.59084e-05H18.9091ZM14.5455 28.8C15.3658 28.8 16 29.5848 16 30.6C16 31.6152 15.3658 32.4 14.5455 32.4C13.7251 32.4 13.0909 31.6152 13.0909 30.6C13.0909 29.5848 13.7251 28.8 14.5455 28.8ZM27.6364 28.8C28.4567 28.8 29.0909 29.5848 29.0909 30.6C29.0909 31.6152 28.4567 32.4 27.6364 32.4C26.816 32.4 26.1818 31.6152 26.1818 30.6C26.1818 29.5848 26.816 28.8 27.6364 28.8Z" fill="black"/>
<path d="M1.92007 41.7948V41.2902H7.004C8.22513 41.2902 9.14099 41.5768 9.75156 42.15C10.3621 42.7107 10.6674 43.4334 10.6674 44.3181V44.8228C10.6674 45.4707 10.4743 46.0252 10.088 46.4863C9.70172 46.9473 9.15968 47.2713 8.46189 47.4582C9.33413 47.6077 10.0132 47.9379 10.4992 48.4488C10.9852 48.9597 11.2281 49.6014 11.2281 50.374V50.8786C11.2281 51.7882 10.9104 52.5359 10.2749 53.1215C9.65187 53.7072 8.71733 54 7.47127 54H1.92007V53.514L2.94807 53.4019C3.14744 53.377 3.26581 53.3271 3.30319 53.2524C3.34058 53.1776 3.35927 52.9222 3.35927 52.486V42.8041C3.35927 42.368 3.34058 42.1126 3.30319 42.0378C3.26581 41.9631 3.14744 41.9132 2.94807 41.8883L1.92007 41.7948ZM7.004 41.8883H4.98538V47.2339H7.004C8.2999 47.2339 8.94785 46.48 8.94785 44.9723V44.206C8.94785 42.6608 8.2999 41.8883 7.004 41.8883ZM7.47127 47.832H4.98538V53.4019H7.47127C8.82947 53.4019 9.50858 52.5982 9.50858 50.9908V50.2244C9.50858 49.4519 9.33413 48.86 8.98523 48.4488C8.6488 48.0376 8.14414 47.832 7.47127 47.832ZM20.788 41.7948V41.2902H24.3579V41.7948L23.3299 41.8883C23.1306 41.9132 23.0122 41.9631 22.9748 42.0378C22.9374 42.1126 22.9187 42.368 22.9187 42.8041V49.6824C22.9187 51.1029 22.5885 52.2119 21.9281 53.0094C21.2802 53.7944 20.2833 54.1869 18.9376 54.1869C17.4672 54.1869 16.3395 53.757 15.5545 52.8972C14.7819 52.0375 14.3957 50.8537 14.3957 49.346V42.8041C14.3957 42.368 14.377 42.1126 14.3396 42.0378C14.3022 41.9631 14.1838 41.9132 13.9845 41.8883L12.9565 41.7948V41.2902H17.461V41.7948L16.433 41.8883C16.2336 41.9132 16.1152 41.9631 16.0778 42.0378C16.0405 42.1126 16.0218 42.368 16.0218 42.8041V49.6263C16.0218 50.9596 16.271 51.9502 16.7694 52.5982C17.2803 53.2461 18.0529 53.5701 19.0871 53.5701C20.1338 53.5701 20.9188 53.2399 21.4421 52.5795C21.9655 51.9191 22.2272 50.9596 22.2272 49.7011V42.8041C22.2272 42.368 22.2085 42.1126 22.1711 42.0378C22.1337 41.9631 22.0153 41.9132 21.816 41.8883L20.788 41.7948ZM32.7456 53.514V54H28.2411V53.514L29.2691 53.4019C29.4685 53.377 29.5868 53.3271 29.6242 53.2524C29.6616 53.1776 29.6803 52.9222 29.6803 52.486V48.5796L26.6711 42.692C26.5465 42.4428 26.4468 42.2683 26.372 42.1687C26.3097 42.0565 26.2412 41.988 26.1664 41.9631C26.1041 41.9257 26.0044 41.9008 25.8674 41.8883L24.9141 41.7948V41.2902H29.4373V41.7948L28.4841 41.8883C28.2972 41.9132 28.1975 41.9631 28.185 42.0378C28.185 42.1126 28.2723 42.3306 28.4467 42.692L30.9887 47.7946L33.5867 42.692C33.7736 42.3306 33.8608 42.1126 33.8484 42.0378C33.8359 41.9631 33.7362 41.9132 33.5493 41.8883L32.5961 41.7948V41.2902H36.0539V41.7948L35.082 41.8883C34.9574 41.9008 34.8577 41.9257 34.7829 41.9631C34.7206 41.988 34.6521 42.0565 34.5773 42.1687C34.515 42.2683 34.4216 42.4428 34.297 42.692L31.3064 48.5423V52.486C31.3064 52.9222 31.3251 53.1776 31.3625 53.2524C31.3999 53.3271 31.5182 53.377 31.7176 53.4019L32.7456 53.514Z" fill="black"/>
</svg>
