<svg width="106" height="62" viewBox="0 0 106 62" fill="none" xmlns="http://www.w3.org/2000/svg">
<path d="M35.4286 0H73.1429V18.8571H69.7143V3.42857H35.4286V27.4286H56V30.8571H32V0H35.4286ZM49.1429 6.85714H42.2857V13.7143H49.1429V6.85714ZM38.8571 17.1429H52.5714V24H38.8571V17.1429ZM66.2857 6.85714H56V10.2857H66.2857V6.85714ZM56 13.7143H66.2857V17.1429H56V13.7143ZM61.1429 20.5714H56V24H61.1429V20.5714ZM68 30.8571V36H64.5714V30.8571H59.4286V27.4286H64.5714V22.2857H68V27.4286H73.1429V30.8571H68Z" fill="black"/>
<path d="M6.5103 54.1869C4.92781 54.1869 3.71913 53.6573 2.88427 52.5982C2.06187 51.539 1.65067 50.1185 1.65067 48.3367V46.9348C1.65067 45.7635 1.82512 44.7418 2.17401 43.8695C2.53537 42.9973 3.06495 42.3182 3.76274 41.8322C4.46053 41.3463 5.31409 41.1033 6.32339 41.1033C7.25794 41.1033 8.0305 41.2902 8.64107 41.664C9.25164 42.0254 9.69399 42.5051 9.96812 43.1032C10.2423 43.6888 10.3295 44.3306 10.2298 45.0284L8.62238 45.4209C8.75944 44.2247 8.62238 43.3088 8.21118 42.6733C7.79998 42.0254 7.17072 41.7014 6.32339 41.7014C5.37639 41.7014 4.65367 42.0378 4.15525 42.7107C3.66929 43.3836 3.4263 44.4801 3.4263 46.0003V49.2712C3.4263 50.8039 3.68798 51.9066 4.21132 52.5795C4.73467 53.2524 5.51346 53.5888 6.54769 53.5888C6.95889 53.5888 7.3514 53.5203 7.72521 53.3832C8.09903 53.2337 8.41678 52.9845 8.67845 52.6356C8.94012 52.2867 9.10211 51.8007 9.16441 51.1777L10.3233 51.4767C10.0491 52.4736 9.56315 53.1776 8.86536 53.5888C8.18003 53.9875 7.39501 54.1869 6.5103 54.1869ZM22.2843 46.9348V48.3367C22.2843 50.1559 21.8668 51.5889 21.032 52.6356C20.1971 53.6698 19.0009 54.1869 17.4433 54.1869C15.8733 54.1869 14.6708 53.6698 13.836 52.6356C13.0136 51.5889 12.6024 50.1559 12.6024 48.3367V46.9348C12.6024 45.128 13.0136 43.7075 13.836 42.6733C14.6708 41.6266 15.8733 41.1033 17.4433 41.1033C19.0009 41.1033 20.1971 41.6266 21.032 42.6733C21.8668 43.7075 22.2843 45.128 22.2843 46.9348ZM20.5086 46.0003C20.5086 44.4427 20.247 43.34 19.7236 42.692C19.2127 42.0316 18.4526 41.7014 17.4433 41.7014C16.434 41.7014 15.6677 42.0316 15.1443 42.692C14.6335 43.34 14.378 44.4427 14.378 46.0003V49.2712C14.378 50.8288 14.6335 51.9378 15.1443 52.5982C15.6677 53.2586 16.434 53.5888 17.4433 53.5888C18.4526 53.5888 19.2127 53.2586 19.7236 52.5982C20.247 51.9378 20.5086 50.8288 20.5086 49.2712V46.0003ZM32.2842 41.7948V41.2902H35.8542V41.7948L34.8262 41.8883C34.6268 41.9132 34.5084 41.9693 34.471 42.0565C34.4336 42.1313 34.415 42.3805 34.415 42.8041V54H33.4991L26.6956 42.5238V52.486C26.6956 52.9097 26.7143 53.1651 26.7517 53.2524C26.7891 53.3271 26.9074 53.377 27.1068 53.4019L28.1348 53.514V54H24.5648V53.514L25.5928 53.4019C25.7922 53.377 25.9106 53.3271 25.948 53.2524C25.9854 53.1651 26.004 52.9097 26.004 52.486V42.8041C26.004 42.3805 25.9854 42.1313 25.948 42.0565C25.9106 41.9693 25.7922 41.9132 25.5928 41.8883L24.5648 41.7948V41.2902H27.7984L33.7234 51.3085V42.8041C33.7234 42.3805 33.7047 42.1313 33.6673 42.0565C33.6299 41.9693 33.5116 41.9132 33.3122 41.8883L32.2842 41.7948ZM36.8337 41.2902H46.7772V44.3368H46.2913L45.7492 42.3743C45.7119 42.2247 45.6682 42.1188 45.6184 42.0565C45.581 41.9817 45.5 41.9381 45.3754 41.9257C45.2508 41.9008 45.039 41.8883 44.7399 41.8883H42.6279V52.486C42.6279 52.9222 42.6465 53.1776 42.6839 53.2524C42.7213 53.3271 42.8397 53.377 43.0391 53.4019L44.0671 53.514V54H39.5625V53.514L40.5905 53.4019C40.7899 53.377 40.9083 53.3271 40.9457 53.2524C40.9831 53.1776 41.0017 52.9222 41.0017 52.486V41.8883H38.871C38.5844 41.8883 38.3726 41.9008 38.2355 41.9257C38.1109 41.9381 38.0237 41.9817 37.9738 42.0565C37.9364 42.1188 37.8991 42.2247 37.8617 42.3743L37.3196 44.3368H36.8337V41.2902ZM49.6143 53.514V54H46.063V53.514L47.0724 53.4019C47.2094 53.3894 47.3091 53.3707 47.3714 53.3458C47.4337 53.3084 47.4898 53.2337 47.5396 53.1215C47.6019 52.9969 47.6767 52.7851 47.7639 52.486L51.3713 41.2902H52.5488L56.1935 52.486C56.2807 52.7851 56.3493 52.9969 56.3991 53.1215C56.4614 53.2337 56.5237 53.3084 56.586 53.3458C56.6483 53.3707 56.7418 53.3894 56.8664 53.4019L57.8944 53.514V54H53.3525V53.514L54.3805 53.4019C54.5799 53.377 54.6858 53.3271 54.6982 53.2524C54.7232 53.1651 54.6671 52.9097 54.53 52.486L53.7637 50.0936H49.2031L48.4368 52.486C48.2997 52.9097 48.2374 53.1651 48.2499 53.2524C48.2748 53.3271 48.3869 53.377 48.5863 53.4019L49.6143 53.514ZM49.39 49.4955H53.5768L51.4834 42.9911L49.39 49.4955ZM63.4592 54.1869C61.8767 54.1869 60.668 53.6573 59.8331 52.5982C59.0107 51.539 58.5995 50.1185 58.5995 48.3367V46.9348C58.5995 45.7635 58.774 44.7418 59.1229 43.8695C59.4842 42.9973 60.0138 42.3182 60.7116 41.8322C61.4094 41.3463 62.263 41.1033 63.2723 41.1033C64.2068 41.1033 64.9794 41.2902 65.5899 41.664C66.2005 42.0254 66.6429 42.5051 66.917 43.1032C67.1911 43.6888 67.2783 44.3306 67.1787 45.0284L65.5712 45.4209C65.7083 44.2247 65.5712 43.3088 65.16 42.6733C64.7488 42.0254 64.1196 41.7014 63.2723 41.7014C62.3253 41.7014 61.6025 42.0378 61.1041 42.7107C60.6182 43.3836 60.3752 44.4801 60.3752 46.0003V49.2712C60.3752 50.8039 60.6368 51.9066 61.1602 52.5795C61.6835 53.2524 62.4623 53.5888 63.4966 53.5888C63.9078 53.5888 64.3003 53.5203 64.6741 53.3832C65.0479 53.2337 65.3656 52.9845 65.6273 52.6356C65.889 52.2867 66.051 51.8007 66.1133 51.1777L67.2721 51.4767C66.998 52.4736 66.512 53.1776 65.8142 53.5888C65.1289 53.9875 64.3439 54.1869 63.4592 54.1869ZM68.4111 41.2902H78.3547V44.3368H77.8687L77.3267 42.3743C77.2893 42.2247 77.2457 42.1188 77.1958 42.0565C77.1584 41.9817 77.0774 41.9381 76.9528 41.9257C76.8282 41.9008 76.6164 41.8883 76.3174 41.8883H74.2053V52.486C74.2053 52.9222 74.224 53.1776 74.2614 53.2524C74.2987 53.3271 74.4171 53.377 74.6165 53.4019L75.6445 53.514V54H71.14V53.514L72.168 53.4019C72.3673 53.377 72.4857 53.3271 72.5231 53.2524C72.5605 53.1776 72.5792 52.9222 72.5792 52.486V41.8883H70.4484C70.1618 41.8883 69.95 41.9008 69.8129 41.9257C69.6883 41.9381 69.6011 41.9817 69.5512 42.0565C69.5139 42.1188 69.4765 42.2247 69.4391 42.3743L68.8971 44.3368H68.4111V41.2902ZM91.2917 41.7948V41.2902H94.8617V41.7948L93.8337 41.8883C93.6343 41.9132 93.5159 41.9631 93.4785 42.0378C93.4411 42.1126 93.4225 42.368 93.4225 42.8041V49.6824C93.4225 51.1029 93.0922 52.2119 92.4318 53.0094C91.7839 53.7944 90.787 54.1869 89.4413 54.1869C87.9709 54.1869 86.8433 53.757 86.0582 52.8972C85.2857 52.0375 84.8994 50.8537 84.8994 49.346V42.8041C84.8994 42.368 84.8807 42.1126 84.8433 42.0378C84.8059 41.9631 84.6876 41.9132 84.4882 41.8883L83.4602 41.7948V41.2902H87.9647V41.7948L86.9367 41.8883C86.7373 41.9132 86.619 41.9631 86.5816 42.0378C86.5442 42.1126 86.5255 42.368 86.5255 42.8041V49.6263C86.5255 50.9596 86.7747 51.9502 87.2731 52.5982C87.784 53.2461 88.5566 53.5701 89.5908 53.5701C90.6375 53.5701 91.4225 53.2399 91.9459 52.5795C92.4692 51.9191 92.7309 50.9596 92.7309 49.7011V42.8041C92.7309 42.368 92.7122 42.1126 92.6748 42.0378C92.6374 41.9631 92.5191 41.9132 92.3197 41.8883L91.2917 41.7948ZM100.539 53.5888C101.374 53.5888 102.047 53.3832 102.558 52.972C103.081 52.5608 103.343 51.9565 103.343 51.159C103.343 50.5235 103.15 49.9939 102.763 49.5703C102.377 49.1341 101.704 48.7852 100.745 48.5236L99.4551 48.1497C98.5081 47.8881 97.7854 47.4457 97.2869 46.8227C96.7885 46.1997 96.5393 45.4396 96.5393 44.5424C96.5393 43.9443 96.6764 43.3836 96.9505 42.8602C97.2371 42.3369 97.667 41.9132 98.2402 41.5892C98.8258 41.2653 99.5672 41.1033 100.464 41.1033C101.461 41.1033 102.265 41.2902 102.876 41.664C103.486 42.0254 103.91 42.4989 104.147 43.0845C104.383 43.6702 104.439 44.2994 104.315 44.9723L102.745 45.3087C102.907 44.1499 102.788 43.259 102.39 42.6359C102.003 42.0129 101.33 41.7014 100.371 41.7014C99.6108 41.7014 99.0127 41.907 98.5766 42.3182C98.1405 42.7169 97.9224 43.3026 97.9224 44.0751C97.9224 44.6857 98.0969 45.209 98.4458 45.6452C98.7947 46.0688 99.4115 46.4053 100.296 46.6545L101.586 47.0283C103.667 47.6015 104.707 48.8164 104.707 50.673C104.707 51.3334 104.551 51.9315 104.24 52.4673C103.941 52.9907 103.48 53.4081 102.857 53.7196C102.246 54.0312 101.474 54.1869 100.539 54.1869C99.8912 54.1869 99.2682 54.0872 98.6701 53.8879C98.0844 53.6885 97.5798 53.3458 97.1561 52.8599C96.7449 52.3739 96.4708 51.701 96.3337 50.8412L97.4552 50.4674C97.5175 51.2898 97.6981 51.9253 97.9972 52.3739C98.2963 52.8225 98.6701 53.1402 99.1187 53.3271C99.5672 53.5016 100.041 53.5888 100.539 53.5888Z" fill="black"/>
</svg>
