<svg width="46" height="31" viewBox="0 0 46 31" fill="none" xmlns="http://www.w3.org/2000/svg">
<path d="M41.525 0H11.325C9.24875 0 7.56888 1.69875 7.56888 3.775L7.55 26.425C7.55 28.5013 9.24875 30.2 11.325 30.2H41.525C43.6013 30.2 45.3 28.5013 45.3 26.425V3.775C45.3 1.69875 43.6013 0 41.525 0ZM40.77 8.02188L27.4254 16.3646C26.8214 16.7421 26.0286 16.7421 25.4246 16.3646L12.08 8.02188C11.8907 7.91563 11.725 7.77209 11.5928 7.59993C11.4606 7.42778 11.3648 7.23059 11.311 7.02031C11.2572 6.81003 11.2467 6.59103 11.28 6.37655C11.3133 6.16208 11.3898 5.9566 11.5048 5.77254C11.6199 5.58849 11.7711 5.42969 11.9492 5.30575C12.1274 5.18182 12.3289 5.09533 12.5415 5.05151C12.7541 5.0077 12.9733 5.00747 13.186 5.05085C13.3987 5.09423 13.6003 5.18031 13.7788 5.30387L26.425 13.2125L39.0713 5.30387C39.2497 5.18031 39.4513 5.09423 39.664 5.05085C39.8767 5.00747 40.0959 5.0077 40.3085 5.05151C40.5211 5.09533 40.7226 5.18182 40.9008 5.30575C41.0789 5.42969 41.2301 5.58849 41.3452 5.77254C41.4602 5.9566 41.5367 6.16208 41.57 6.37655C41.6033 6.59103 41.5928 6.81003 41.539 7.02031C41.4852 7.23059 41.3894 7.42778 41.2572 7.59993C41.125 7.77209 40.9593 7.91563 40.77 8.02188Z" fill="black"/>
</svg>
