<svg width="58" height="58" viewBox="0 0 58 58" fill="none" xmlns="http://www.w3.org/2000/svg">
<path d="M58 29C58 12.9838 45.0162 0 29 0C12.9838 0 0 12.9838 0 29C0 43.4746 10.6049 55.4722 24.4688 57.6477V37.3828H17.1055V29H24.4688V22.6109C24.4688 15.3428 28.7984 11.3281 35.4226 11.3281C38.5954 11.3281 41.9141 11.8945 41.9141 11.8945V19.0312H38.2573C34.6548 19.0312 33.5312 21.2667 33.5312 23.5602V29H41.5742L40.2885 37.3828H33.5312V57.6477C47.3951 55.4722 58 43.4748 58 29Z" fill="#1877F2"/>
<path d="M40.2885 37.3828L41.5742 29H33.5312V23.5602C33.5312 21.2665 34.6548 19.0312 38.2573 19.0312H41.9141V11.8945C41.9141 11.8945 38.5954 11.3281 35.4224 11.3281C28.7984 11.3281 24.4688 15.3428 24.4688 22.6109V29H17.1055V37.3828H24.4688V57.6477C25.9677 57.8826 27.4827 58.0004 29 58C30.5173 58.0005 32.0323 57.8827 33.5312 57.6477V37.3828H40.2885Z" fill="white"/>
</svg>
