<svg width="53" height="66" viewBox="0 0 53 66" fill="none" xmlns="http://www.w3.org/2000/svg">
<path d="M13.5 16.5V36.75C13.5 37.3467 13.7371 37.919 14.159 38.341C14.581 38.7629 15.1533 39 15.75 39H38.25C38.8467 39 39.419 38.7629 39.841 38.341C40.2629 37.919 40.5 37.3467 40.5 36.75V16.5M13.5 16.5L27 3L40.5 16.5M13.5 16.5L9 21M40.5 16.5L45 21M22.5 23.25H31.5V32.25H22.5V23.25Z" stroke="black" stroke-width="4.5" stroke-linecap="round" stroke-linejoin="round"/>
<path d="M12.7058 56.514V57H8.20131V56.514L9.22931 56.4019C9.42868 56.377 9.54705 56.3271 9.58443 56.2524C9.62182 56.1776 9.64051 55.9222 9.64051 55.486V50.8881H3.99585V55.486C3.99585 55.9222 4.01454 56.1776 4.05192 56.2524C4.08931 56.3271 4.20768 56.377 4.40705 56.4019L5.43505 56.514V57H0.930542V56.514L1.95854 56.4019C2.15791 56.377 2.27629 56.3271 2.31367 56.2524C2.35105 56.1776 2.36974 55.9222 2.36974 55.486V45.8041C2.36974 45.368 2.35105 45.1126 2.31367 45.0378C2.27629 44.9631 2.15791 44.9132 1.95854 44.8883L0.930542 44.7948V44.2902H5.43505V44.7948L4.40705 44.8883C4.20768 44.9132 4.08931 44.9631 4.05192 45.0378C4.01454 45.1126 3.99585 45.368 3.99585 45.8041V50.29H9.64051V45.8041C9.64051 45.368 9.62182 45.1126 9.58443 45.0378C9.54705 44.9631 9.42868 44.9132 9.22931 44.8883L8.20131 44.7948V44.2902H12.7058V44.7948L11.6778 44.8883C11.4784 44.9132 11.3601 44.9631 11.3227 45.0378C11.2853 45.1126 11.2666 45.368 11.2666 45.8041V55.486C11.2666 55.9222 11.2853 56.1776 11.3227 56.2524C11.3601 56.3271 11.4784 56.377 11.6778 56.4019L12.7058 56.514ZM24.6603 49.9348V51.3367C24.6603 53.1559 24.2428 54.5889 23.408 55.6356C22.5731 56.6698 21.3769 57.1869 19.8193 57.1869C18.2493 57.1869 17.0468 56.6698 16.212 55.6356C15.3896 54.5889 14.9784 53.1559 14.9784 51.3367V49.9348C14.9784 48.128 15.3896 46.7075 16.212 45.6733C17.0468 44.6266 18.2493 44.1033 19.8193 44.1033C21.3769 44.1033 22.5731 44.6266 23.408 45.6733C24.2428 46.7075 24.6603 48.128 24.6603 49.9348ZM22.8846 49.0003C22.8846 47.4427 22.623 46.34 22.0996 45.692C21.5887 45.0316 20.8286 44.7014 19.8193 44.7014C18.81 44.7014 18.0437 45.0316 17.5203 45.692C17.0094 46.34 16.754 47.4427 16.754 49.0003V52.2712C16.754 53.8288 17.0094 54.9378 17.5203 55.5982C18.0437 56.2586 18.81 56.5888 19.8193 56.5888C20.8286 56.5888 21.5887 56.2586 22.0996 55.5982C22.623 54.9378 22.8846 53.8288 22.8846 52.2712V49.0003ZM41.202 56.514V57H36.6975V56.514L37.7255 56.4019C37.9249 56.377 38.0432 56.3271 38.0806 56.2524C38.118 56.1651 38.1367 55.9097 38.1367 55.486V45.3556L34.249 55.5047H32.978L29.0716 45.3556V55.486C29.0716 55.9097 29.0903 56.1651 29.1277 56.2524C29.1651 56.3271 29.2834 56.377 29.4828 56.4019L30.5108 56.514V57H26.9408V56.514L27.9688 56.4019C28.1682 56.377 28.2866 56.3271 28.324 56.2524C28.3614 56.1651 28.38 55.9097 28.38 55.486V45.8041C28.38 45.3805 28.3614 45.1313 28.324 45.0565C28.2866 44.9693 28.1682 44.9132 27.9688 44.8883L26.9408 44.7948V44.2902H30.3613L34.1182 54.1029L37.875 44.2902H41.202V44.7948L40.174 44.8883C39.9746 44.9132 39.8563 44.9693 39.8189 45.0565C39.7815 45.1313 39.7628 45.3805 39.7628 45.8041V55.486C39.7628 55.9097 39.7815 56.1651 39.8189 56.2524C39.8563 56.3271 39.9746 56.377 40.174 56.4019L41.202 56.514ZM51.4886 53.9534H51.9745V57H43.0216V56.514L44.0496 56.4019C44.249 56.377 44.3673 56.3271 44.4047 56.2524C44.4421 56.1776 44.4608 55.9222 44.4608 55.486V45.8041C44.4608 45.368 44.4421 45.1126 44.4047 45.0378C44.3673 44.9631 44.249 44.9132 44.0496 44.8883L43.0216 44.7948V44.2902H51.7316V47.3368H51.2643L50.7223 45.3743C50.6849 45.2247 50.6413 45.1188 50.5914 45.0565C50.554 44.9817 50.473 44.9381 50.3484 44.9257C50.2238 44.9008 50.012 44.8883 49.7129 44.8883H46.0869V50.29H48.5915C48.8905 50.29 49.1024 50.2837 49.227 50.2713C49.3516 50.2464 49.4326 50.2027 49.47 50.1404C49.5198 50.0657 49.5634 49.9535 49.6008 49.804L49.9559 48.4022H50.4419V52.7759H49.9559L49.6008 51.374C49.5634 51.2245 49.5198 51.1186 49.47 51.0563C49.4326 50.9815 49.3516 50.9379 49.227 50.9255C49.1024 50.9005 48.8905 50.8881 48.5915 50.8881H46.0869V56.4019H49.9372C50.2363 56.4019 50.4481 56.3957 50.5727 56.3832C50.6973 56.3583 50.7783 56.3147 50.8157 56.2524C50.8655 56.1776 50.9092 56.0655 50.9465 55.9159L51.4886 53.9534Z" fill="black"/>
</svg>
