<svg width="63" height="62" viewBox="0 0 63 62" fill="none" xmlns="http://www.w3.org/2000/svg">
<path d="M33.2485 34.7135V21.204C33.2485 20.351 33.5879 19.5328 34.1921 18.9296C34.7962 18.3264 35.6156 17.9875 36.47 17.9875C37.3243 17.9875 38.1437 18.3264 38.7478 18.9296C39.352 19.5328 39.6914 20.351 39.6914 21.204V28.2804H44.8456C46.2126 28.2804 47.5236 28.8227 48.4903 29.7878C49.4569 30.753 49.9999 32.062 49.9999 33.4269V34.7135" fill="black"/>
<path fill-rule="evenodd" clip-rule="evenodd" d="M14 11.3613C14.0029 9.72246 14.3602 8.10359 15.0475 6.61538C15.7348 5.12716 16.7359 3.80471 17.9823 2.73844C19.2287 1.67217 20.691 0.887235 22.2693 0.437316C23.8475 -0.0126028 25.5045 -0.116897 27.1268 0.131566C28.7491 0.380029 30.2986 0.975388 31.6692 1.87693C33.0399 2.77848 34.1994 3.96494 35.0684 5.35519C35.9374 6.74544 36.4955 8.30669 36.7045 9.93217C36.9135 11.5577 36.7685 13.209 36.2793 14.7734C34.6043 14.8229 33.0145 15.5221 31.8472 16.7227C30.68 17.9233 30.0271 19.5307 30.0272 21.2039V21.7674C28.2913 22.5376 26.3903 22.8624 24.4967 22.7123C22.6031 22.5622 20.7772 21.942 19.1847 20.9081C17.5923 19.8742 16.2839 18.4592 15.3784 16.792C14.4729 15.1247 13.9991 13.2579 14 11.3613ZM25.3987 3.02915C26.2904 3.02915 27.0094 3.74965 27.0094 4.63742V5.36565C27.643 5.51059 28.2296 5.81304 28.7149 6.24491C29.2001 6.67677 29.5682 7.22406 29.785 7.83595C29.8555 8.03516 29.8861 8.24629 29.8749 8.45729C29.8638 8.6683 29.8111 8.87504 29.7199 9.06572C29.6288 9.2564 29.5009 9.42728 29.3435 9.56861C29.1862 9.70993 29.0026 9.81893 28.8031 9.88939C28.6036 9.95985 28.3921 9.99038 28.1808 9.97924C27.9695 9.9681 27.7624 9.91551 27.5714 9.82447C27.3805 9.73343 27.2093 9.60573 27.0678 9.44865C26.9262 9.29157 26.8171 9.10819 26.7465 8.90899C26.7028 8.78554 26.6218 8.67867 26.5147 8.60309C26.4077 8.52751 26.2797 8.48694 26.1486 8.48698H24.409C24.3129 8.48865 24.2206 8.52537 24.1496 8.59023C24.0787 8.65509 24.0339 8.74362 24.0238 8.83914C24.0137 8.93466 24.0388 9.03059 24.0946 9.10886C24.1504 9.18713 24.2329 9.24234 24.3266 9.2641L26.9733 9.8405C27.829 10.0284 28.5951 10.5014 29.1457 11.1818C29.6963 11.8623 29.9985 12.7095 30.0027 13.5843C30.0069 14.4591 29.7128 15.3092 29.1688 15.9949C28.6248 16.6805 27.8632 17.1609 27.0094 17.3569V18.0877C27.0094 18.5143 26.8397 18.9233 26.5376 19.2249C26.2355 19.5265 25.8259 19.696 25.3987 19.696C24.9715 19.696 24.5618 19.5265 24.2597 19.2249C23.9577 18.9233 23.788 18.5143 23.788 18.0877V17.3595C23.1551 17.2135 22.5693 16.9106 22.0847 16.4789C21.6 16.0471 21.2321 15.5004 21.015 14.8892C20.8725 14.4869 20.8958 14.0445 21.08 13.6594C21.2641 13.2743 21.5939 12.978 21.9969 12.8357C22.3998 12.6935 22.8428 12.7168 23.2285 12.9007C23.6142 13.0845 23.9109 13.4138 24.0534 13.8161C24.0974 13.9394 24.1785 14.046 24.2855 14.1216C24.3925 14.1971 24.5203 14.2378 24.6513 14.2382H26.1486C26.303 14.2344 26.4507 14.1747 26.5643 14.0702C26.6779 13.9657 26.7495 13.8236 26.7659 13.6702C26.7823 13.5169 26.7423 13.3629 26.6534 13.2368C26.5645 13.1107 26.4327 13.0212 26.2826 12.985L23.6385 12.406C22.8195 12.2278 22.0879 11.7709 21.569 11.1136C21.05 10.4563 20.7759 9.63935 20.7936 8.80254C20.8112 7.96573 21.1195 7.16105 21.6657 6.52614C22.212 5.89123 22.9621 5.46555 23.788 5.3219V4.63742C23.788 3.74708 24.5096 3.02915 25.3987 3.02915ZM33.2486 21.2039V36H50V33.4268C50 32.0618 49.457 30.7528 48.4903 29.7877C47.5237 28.8225 46.2127 28.2803 44.8457 28.2803H39.6915V21.2039C39.6915 20.3508 39.3521 19.5327 38.7479 18.9295C38.1438 18.3262 37.3244 17.9874 36.47 17.9874C35.6157 17.9874 34.7963 18.3262 34.1922 18.9295C33.588 19.5327 33.2486 20.3508 33.2486 21.2039Z" fill="black"/>
<path d="M1.23043 41.7948V41.2902H5.73494V41.7948L4.70694 41.8883C4.50757 41.9132 4.3892 41.9631 4.35182 42.0378C4.31444 42.1126 4.29574 42.368 4.29574 42.8041V52.486C4.29574 52.9222 4.31444 53.1776 4.35182 53.2524C4.3892 53.3271 4.50757 53.377 4.70694 53.4019L5.73494 53.514V54H1.23043V53.514L2.25843 53.4019C2.4578 53.377 2.57618 53.3271 2.61356 53.2524C2.65094 53.1776 2.66963 52.9222 2.66963 52.486V42.8041C2.66963 42.368 2.65094 42.1126 2.61356 42.0378C2.57618 41.9631 2.4578 41.9132 2.25843 41.8883L1.23043 41.7948ZM15.247 41.7948V41.2902H18.817V41.7948L17.789 41.8883C17.5896 41.9132 17.4712 41.9693 17.4338 42.0565C17.3965 42.1313 17.3778 42.3805 17.3778 42.8041V54H16.4619L9.65843 42.5238V52.486C9.65843 52.9097 9.67712 53.1651 9.7145 53.2524C9.75188 53.3271 9.87026 53.377 10.0696 53.4019L11.0976 53.514V54H7.52767V53.514L8.55567 53.4019C8.75504 53.377 8.87341 53.3271 8.91079 53.2524C8.94817 53.1651 8.96687 52.9097 8.96687 52.486V42.8041C8.96687 42.3805 8.94817 42.1313 8.91079 42.0565C8.87341 41.9693 8.75504 41.9132 8.55567 41.8883L7.52767 41.7948V41.2902H10.7612L16.6862 51.3085V42.8041C16.6862 42.3805 16.6675 42.1313 16.6301 42.0565C16.5928 41.9693 16.4744 41.9132 16.275 41.8883L15.247 41.7948ZM29.6092 42.692L25.9832 54H24.7309L21.0862 42.692C20.974 42.3182 20.8868 42.1001 20.8245 42.0378C20.7747 41.9631 20.65 41.9132 20.4507 41.8883L19.5161 41.7948V41.2902H23.9085V41.7948L22.9553 41.8883C22.7559 41.9132 22.6437 41.9631 22.6188 42.0378C22.6064 42.1126 22.6562 42.3306 22.7683 42.692L25.8523 52.3739L28.9364 42.692C29.061 42.3306 29.1108 42.1126 29.0859 42.0378C29.0734 41.9631 28.9613 41.9132 28.7494 41.8883L27.7962 41.7948V41.2902H31.1793V41.7948L30.226 41.8883C30.1014 41.9008 30.008 41.9257 29.9457 41.9631C29.8958 41.988 29.846 42.0565 29.7961 42.1687C29.7588 42.2683 29.6964 42.4428 29.6092 42.692ZM40.5082 50.9534H40.9942V54H32.0412V53.514L33.0692 53.4019C33.2686 53.377 33.387 53.3271 33.4244 53.2524C33.4617 53.1776 33.4804 52.9222 33.4804 52.486V42.8041C33.4804 42.368 33.4617 42.1126 33.4244 42.0378C33.387 41.9631 33.2686 41.9132 33.0692 41.8883L32.0412 41.7948V41.2902H40.7512V44.3368H40.2839L39.7419 42.3743C39.7045 42.2247 39.6609 42.1188 39.6111 42.0565C39.5737 41.9817 39.4927 41.9381 39.3681 41.9257C39.2435 41.9008 39.0316 41.8883 38.7326 41.8883H35.1065V47.29H37.6111C37.9102 47.29 38.122 47.2837 38.2466 47.2713C38.3712 47.2464 38.4522 47.2027 38.4896 47.1404C38.5394 47.0657 38.5831 46.9535 38.6204 46.804L38.9756 45.4022H39.4615V49.7759H38.9756L38.6204 48.374C38.5831 48.2245 38.5394 48.1186 38.4896 48.0563C38.4522 47.9815 38.3712 47.9379 38.2466 47.9255C38.122 47.9005 37.9102 47.8881 37.6111 47.8881H35.1065V53.4019H38.9569C39.2559 53.4019 39.4678 53.3957 39.5924 53.3832C39.717 53.3583 39.798 53.3147 39.8353 53.2524C39.8852 53.1776 39.9288 53.0655 39.9662 52.9159L40.5082 50.9534ZM47.0328 53.5888C47.8677 53.5888 48.5405 53.3832 49.0514 52.972C49.5748 52.5608 49.8364 51.9565 49.8364 51.159C49.8364 50.5235 49.6433 49.9939 49.257 49.5703C48.8707 49.1341 48.1979 48.7852 47.2384 48.5236L45.9487 48.1497C45.0017 47.8881 44.279 47.4457 43.7806 46.8227C43.2822 46.1997 43.0329 45.4396 43.0329 44.5424C43.0329 43.9443 43.17 43.3836 43.4441 42.8602C43.7307 42.3369 44.1606 41.9132 44.7338 41.5892C45.3195 41.2653 46.0609 41.1033 46.958 41.1033C47.9549 41.1033 48.7586 41.2902 49.3692 41.664C49.9797 42.0254 50.4034 42.4989 50.6401 43.0845C50.8769 43.6702 50.933 44.2994 50.8084 44.9723L49.2383 45.3087C49.4003 44.1499 49.2819 43.259 48.8832 42.6359C48.4969 42.0129 47.8241 41.7014 46.8646 41.7014C46.1045 41.7014 45.5064 41.907 45.0703 42.3182C44.6341 42.7169 44.4161 43.3026 44.4161 44.0751C44.4161 44.6857 44.5905 45.209 44.9394 45.6452C45.2883 46.0688 45.9051 46.4053 46.7898 46.6545L48.0795 47.0283C50.1604 47.6015 51.2009 48.8164 51.2009 50.673C51.2009 51.3334 51.0451 51.9315 50.7336 52.4673C50.4345 52.9907 49.9735 53.4081 49.3505 53.7196C48.7399 54.0312 47.9673 54.1869 47.0328 54.1869C46.3849 54.1869 45.7618 54.0872 45.1637 53.8879C44.5781 53.6885 44.0734 53.3458 43.6497 52.8599C43.2385 52.3739 42.9644 51.701 42.8273 50.8412L43.9488 50.4674C44.0111 51.2898 44.1918 51.9253 44.4908 52.3739C44.7899 52.8225 45.1637 53.1402 45.6123 53.3271C46.0609 53.5016 46.5344 53.5888 47.0328 53.5888ZM52.4691 41.2902H62.4126V44.3368H61.9267L61.3846 42.3743C61.3473 42.2247 61.3037 42.1188 61.2538 42.0565C61.2164 41.9817 61.1354 41.9381 61.0108 41.9257C60.8862 41.9008 60.6744 41.8883 60.3753 41.8883H58.2633V52.486C58.2633 52.9222 58.282 53.1776 58.3193 53.2524C58.3567 53.3271 58.4751 53.377 58.6745 53.4019L59.7025 53.514V54H55.198V53.514L56.226 53.4019C56.4253 53.377 56.5437 53.3271 56.5811 53.2524C56.6185 53.1776 56.6372 52.9222 56.6372 52.486V41.8883H54.5064C54.2198 41.8883 54.008 41.9008 53.8709 41.9257C53.7463 41.9381 53.6591 41.9817 53.6092 42.0565C53.5718 42.1188 53.5345 42.2247 53.4971 42.3743L52.955 44.3368H52.4691V41.2902Z" fill="black"/>
</svg>
