<svg width="72" height="70" viewBox="0 0 72 70" fill="none" xmlns="http://www.w3.org/2000/svg">
<path d="M71 35C71 53.7513 55.3567 69 36 69C16.6433 69 1 53.7513 1 35C1 16.2487 16.6433 1 36 1C55.3567 1 71 16.2487 71 35Z" fill="#FFB800" stroke="black" stroke-width="2"/>
<path fill-rule="evenodd" clip-rule="evenodd" d="M32.5592 21.4381C32.8401 21.719 32.9979 22.0997 32.9979 22.4967C32.9979 22.8936 32.8401 23.2744 32.5592 23.5553L23.1189 32.9827H51.4999C51.8978 32.9827 52.2793 33.1405 52.5606 33.4214C52.842 33.7023 53 34.0834 53 34.4807C53 34.878 52.842 35.259 52.5606 35.5399C52.2793 35.8208 51.8978 35.9787 51.4999 35.9787H23.1189L32.5592 45.4061C32.7066 45.5432 32.8248 45.7086 32.9068 45.8923C32.9888 46.0761 33.0329 46.2744 33.0364 46.4756C33.04 46.6767 33.0029 46.8765 32.9275 47.063C32.852 47.2496 32.7397 47.419 32.5973 47.5612C32.4549 47.7035 32.2852 47.8156 32.0984 47.891C31.9116 47.9663 31.7116 48.0033 31.5101 47.9998C31.3087 47.9962 31.1101 47.9522 30.9261 47.8703C30.7421 47.7884 30.5765 47.6704 30.4391 47.5232L18.4387 35.5392C18.1578 35.2584 18 34.8776 18 34.4807C18 34.0837 18.1578 33.7029 18.4387 33.4221L30.4391 21.4381C30.7204 21.1576 31.1017 21 31.4992 21C31.8967 21 32.278 21.1576 32.5592 21.4381Z" fill="black"/>
</svg>
