<svg width="26" height="26" viewBox="0 0 26 26" fill="none" xmlns="http://www.w3.org/2000/svg">
<path fill-rule="evenodd" clip-rule="evenodd" d="M16.3651 17.9484C14.3532 19.556 11.8021 20.3321 9.23582 20.1175C6.66953 19.9028 4.28285 18.7136 2.56595 16.794C0.849053 14.8745 -0.0677265 12.3704 0.00390212 9.79601C0.0755307 7.22161 1.13013 4.77235 2.9511 2.95127C4.77208 1.1302 7.22119 0.0755351 9.79544 0.00390235C12.3697 -0.0677304 14.8737 0.849102 16.7931 2.5661C18.7125 4.28309 19.9016 6.66991 20.1163 9.23635C20.331 11.8028 19.5549 14.354 17.9473 16.366L25.6437 24.0613C25.7537 24.1638 25.8419 24.2874 25.9031 24.4247C25.9643 24.5621 25.9972 24.7103 25.9998 24.8607C26.0025 25.011 25.9748 25.1603 25.9185 25.2997C25.8622 25.4391 25.7784 25.5658 25.6721 25.6721C25.5658 25.7784 25.4392 25.8622 25.2998 25.9185C25.1604 25.9748 25.011 26.0025 24.8607 25.9998C24.7104 25.9972 24.5622 25.9643 24.4248 25.9031C24.2875 25.8419 24.1639 25.7537 24.0614 25.6437L16.3651 17.9484ZM4.53399 15.6167C3.43842 14.5209 2.69224 13.1249 2.38976 11.6052C2.08728 10.0855 2.24207 8.51018 2.83458 7.0784C3.42709 5.64662 4.43071 4.42263 5.71862 3.56111C7.00652 2.6996 8.5209 2.23923 10.0704 2.23818C11.6198 2.23714 13.1348 2.69547 14.4239 3.55526C15.7129 4.41504 16.7182 5.63768 17.3126 7.06866C17.9071 8.49964 18.064 10.0747 17.7635 11.5949C17.4631 13.115 16.7188 14.512 15.6247 15.6092L15.6173 15.6167L15.6098 15.6226C14.1396 17.0895 12.1474 17.9127 10.0707 17.9116C7.99394 17.9105 6.00258 17.0851 4.53399 15.6167Z" fill="black"/>
</svg>
