<svg width="337" height="84" viewBox="0 0 337 84" fill="none" xmlns="http://www.w3.org/2000/svg">
<rect x="1.5" y="1.5" width="334" height="81" rx="17.5" fill="#FFB800" stroke="black" stroke-width="3"/>
<path d="M50.5177 51.3166C51.6112 51.3166 52.5133 51.0614 53.224 50.5511C53.953 50.0226 54.3175 49.2025 54.3175 48.0908C54.3175 47.2707 54.0715 46.5873 53.5794 46.0405C53.1056 45.4938 52.249 45.0382 51.0097 44.6737L48.4674 43.9082C47.1917 43.5255 46.2075 42.8694 45.515 41.94C44.8407 40.9923 44.5035 39.8168 44.5035 38.4135C44.5035 37.484 44.7131 36.6184 45.1323 35.8165C45.5697 35.0146 46.2258 34.3676 47.1006 33.8756C47.9936 33.3835 49.1144 33.1375 50.463 33.1375C51.9392 33.1375 53.1329 33.4108 54.0442 33.9576C54.9554 34.4861 55.5933 35.1786 55.9578 36.0352C56.3222 36.8917 56.4134 37.8121 56.2311 38.7962L53.0874 39.3703C53.379 37.6754 53.2514 36.3723 52.7046 35.4611C52.1761 34.5499 51.3105 34.0942 50.1076 34.0942C49.1782 34.0942 48.431 34.3676 47.866 34.9144C47.3192 35.4611 47.0459 36.2448 47.0459 37.2653C47.0459 38.1037 47.2828 38.8418 47.7566 39.4796C48.2487 40.1175 49.0506 40.6096 50.1623 40.9558L52.7046 41.7213C54.0897 42.1222 55.1285 42.7327 55.8211 43.5529C56.5136 44.3547 56.8599 45.4756 56.8599 46.9153C56.8599 47.9359 56.623 48.8562 56.1491 49.6764C55.6935 50.4782 54.9918 51.1161 54.0442 51.5899C53.1147 52.0456 51.9483 52.2734 50.545 52.2734C49.5244 52.2734 48.5585 52.1276 47.6473 51.836C46.7361 51.5262 45.9706 51.025 45.351 50.3324C44.7496 49.6399 44.3669 48.7013 44.2028 47.5167L46.0344 46.8606C46.1255 48.027 46.3807 48.9383 46.7998 49.5943C47.2372 50.2322 47.7749 50.6787 48.4127 50.9339C49.0688 51.189 49.7705 51.3166 50.5177 51.3166ZM71.3081 48.7469C70.9801 50.0226 70.3696 50.9339 69.4765 51.4806C68.5835 52.0091 67.5447 52.2734 66.3601 52.2734C64.1732 52.2734 62.5329 51.6446 61.4395 50.3871C60.346 49.1114 59.7992 47.4256 59.7992 45.3298V44.783C59.7992 42.6872 60.3095 41.0105 61.3301 39.753C62.3689 38.4955 63.8633 37.8668 65.8134 37.8668C66.9069 37.8668 67.8728 38.0855 68.7111 38.5228C69.5677 38.942 70.2329 39.5525 70.7067 40.3544C71.1988 41.1563 71.4448 42.1313 71.4448 43.2795C71.4448 43.5529 71.4266 43.8445 71.3901 44.1543C71.3719 44.4641 71.3264 44.7739 71.2535 45.0837H63.1617V45.8765C63.1617 47.8083 63.4351 49.2025 63.9818 50.0591C64.5285 50.8974 65.4124 51.3166 66.6335 51.3166C67.4172 51.3166 68.0824 51.0888 68.6291 50.6331C69.1758 50.1593 69.4857 49.3665 69.5586 48.2548L71.3081 48.7469ZM65.8134 38.8236C64.9204 38.8236 64.2552 39.2336 63.8178 40.0537C63.3804 40.8738 63.1617 42.2316 63.1617 44.1269H68.1097C68.1826 43.7624 68.2282 43.4253 68.2464 43.1155C68.2828 42.7874 68.3011 42.4867 68.3011 42.2133C68.3011 41.047 68.0732 40.1904 67.6176 39.6437C67.162 39.0969 66.5606 38.8236 65.8134 38.8236ZM89.55 51.2346V52H82.1964V51.2346L83.6999 51.0432C83.9915 51.0068 84.1646 50.9339 84.2193 50.8245C84.274 50.6969 84.3013 50.3233 84.3013 49.7037V42.8148C84.3013 41.5573 84.11 40.646 83.7273 40.0811C83.3628 39.4979 82.816 39.2063 82.087 39.2063C81.7772 39.2063 81.4127 39.2883 80.9936 39.4523C80.5926 39.5981 80.1826 39.8715 79.7634 40.2724C79.3624 40.6734 79.0071 41.2657 78.6972 42.0493V49.7037C78.6972 50.3233 78.7246 50.6969 78.7793 50.8245C78.8339 50.9339 79.0071 51.0068 79.2987 51.0432L80.8022 51.2346V52H73.4485V51.2346L74.9521 51.0432C75.2437 51.0068 75.4168 50.9339 75.4715 50.8245C75.5261 50.6969 75.5535 50.3233 75.5535 49.7037V40.4364C75.5535 39.8168 75.5261 39.4523 75.4715 39.343C75.4168 39.2154 75.2437 39.1334 74.9521 39.0969L73.4485 38.9056V38.1401H78.5332V40.5458C79.0617 39.6163 79.736 38.942 80.5562 38.5228C81.3945 38.0855 82.2328 37.8668 83.0712 37.8668C84.4198 37.8668 85.4859 38.295 86.2696 39.1516C87.0533 40.0082 87.4451 41.2201 87.4451 42.7874V49.7037C87.4451 50.3233 87.4724 50.6969 87.5271 50.8245C87.5818 50.9339 87.7549 51.0068 88.0465 51.0432L89.55 51.2346ZM105.407 51.2346V52H100.322V49.731C99.8118 50.5694 99.2377 51.2072 98.5999 51.6446C97.9802 52.0638 97.2421 52.2734 96.3856 52.2734C94.8547 52.2734 93.6336 51.672 92.7224 50.4691C91.8294 49.2481 91.3829 47.5441 91.3829 45.3571V44.8104C91.3829 42.6963 91.9023 41.0105 92.9411 39.753C93.9981 38.4955 95.4379 37.8668 97.2604 37.8668C98.3538 37.8668 99.3198 38.1401 100.158 38.6869V34.0669C100.158 33.4473 100.131 33.0828 100.076 32.9734C100.021 32.8459 99.8483 32.7638 99.5567 32.7274L98.0531 32.536V31.7706H103.302V49.7037C103.302 50.3233 103.329 50.6969 103.384 50.8245C103.439 50.9339 103.612 51.0068 103.903 51.0432L105.407 51.2346ZM94.7454 46.1772C94.7454 47.8721 94.9549 49.1114 95.3741 49.895C95.7933 50.6787 96.3674 51.0705 97.0963 51.0705C97.552 51.0705 98.0258 50.8883 98.5179 50.5238C99.0282 50.1411 99.5749 49.3756 100.158 48.2275V39.9717C99.4655 39.2792 98.6181 38.9329 97.6157 38.9329C96.6134 38.9329 95.8844 39.3885 95.4288 40.2998C94.9732 41.1928 94.7454 42.4229 94.7454 43.9903V46.1772ZM120.24 53.3669C119.821 54.515 119.356 55.4354 118.846 56.1279C118.353 56.8204 117.743 57.3216 117.014 57.6314C116.285 57.9412 115.374 58.0962 114.28 58.0962V55.0891C115.392 55.0891 116.285 55.0071 116.959 54.8431C117.652 54.6973 118.18 54.4512 118.545 54.105C118.928 53.7769 119.21 53.3486 119.392 52.8201L119.666 52H118.244L114.362 40.4364C114.235 40.0173 114.125 39.7257 114.034 39.5617C113.961 39.3794 113.87 39.2609 113.761 39.2063C113.67 39.1516 113.524 39.1151 113.323 39.0969L111.82 38.9056V38.1401H119.201V38.9056L117.697 39.0969C117.479 39.1151 117.342 39.188 117.287 39.3156C117.251 39.425 117.333 39.7986 117.533 40.4364L120.513 49.4577L123.602 40.3271C123.803 39.7439 123.885 39.4067 123.848 39.3156C123.83 39.2063 123.684 39.1334 123.411 39.0969L121.907 38.9056V38.1401H127.129V38.9056L125.625 39.0969C125.352 39.1334 125.169 39.2063 125.078 39.3156C124.987 39.425 124.841 39.7621 124.641 40.3271L120.24 53.3669ZM139.967 44.783V45.3298C139.967 47.4256 139.421 49.1114 138.327 50.3871C137.252 51.6446 135.712 52.2734 133.707 52.2734C131.703 52.2734 130.153 51.6446 129.06 50.3871C127.985 49.1114 127.447 47.4256 127.447 45.3298V44.783C127.447 42.6872 127.985 41.0105 129.06 39.753C130.153 38.4955 131.703 37.8668 133.707 37.8668C135.712 37.8668 137.252 38.4955 138.327 39.753C139.421 41.0105 139.967 42.6872 139.967 44.783ZM136.605 44.2363C136.605 42.2862 136.359 40.9012 135.867 40.0811C135.375 39.2427 134.655 38.8236 133.707 38.8236C132.778 38.8236 132.058 39.2427 131.548 40.0811C131.056 40.9012 130.81 42.2862 130.81 44.2363V45.8765C130.81 47.8083 131.056 49.2025 131.548 50.0591C132.058 50.8974 132.778 51.3166 133.707 51.3166C134.655 51.3166 135.375 50.8974 135.867 50.0591C136.359 49.2025 136.605 47.8083 136.605 45.8765V44.2363ZM157.505 51.2346V52H152.42V49.5943C151.91 50.5238 151.254 51.2072 150.452 51.6446C149.65 52.0638 148.839 52.2734 148.019 52.2734C146.725 52.2734 145.695 51.8451 144.93 50.9885C144.164 50.1137 143.782 48.9018 143.782 47.3527V40.4364C143.782 39.8168 143.754 39.4523 143.7 39.343C143.645 39.2154 143.472 39.1334 143.18 39.0969L141.677 38.9056V38.1401H146.925V47.3254C146.925 48.5829 147.098 49.5032 147.445 50.0864C147.809 50.6514 148.329 50.9339 149.003 50.9339C149.295 50.9339 149.632 50.861 150.014 50.7152C150.415 50.5511 150.816 50.2687 151.217 49.8677C151.618 49.4485 151.964 48.8562 152.256 48.0908V40.4364C152.256 39.8168 152.229 39.4432 152.174 39.3156C152.119 39.188 151.946 39.1151 151.655 39.0969L149.604 38.9056V38.1401H155.4V49.7037C155.4 50.3233 155.427 50.6969 155.482 50.8245C155.536 50.9339 155.71 51.0068 156.001 51.0432L157.505 51.2346ZM158.583 38.9056V38.1401H163.668V40.3818C164.779 38.7051 166.101 37.8668 167.632 37.8668C168.197 37.8668 168.743 38.049 169.272 38.4135C169.8 38.7598 170.238 39.4159 170.584 40.3818L168.151 41.6939C167.896 40.9467 167.595 40.4456 167.249 40.1904C166.921 39.917 166.565 39.7803 166.183 39.7803C165.782 39.7803 165.39 39.9079 165.007 40.1631C164.625 40.4182 164.233 40.8921 163.832 41.5846V49.7037C163.832 50.3233 163.859 50.6969 163.914 50.8245C163.968 50.9339 164.142 51.0068 164.433 51.0432L166.483 51.2346V52H158.583V51.2346L160.087 51.0432C160.378 51.0068 160.551 50.9339 160.606 50.8245C160.661 50.6969 160.688 50.3233 160.688 49.7037V40.4364C160.688 39.8168 160.661 39.4523 160.606 39.343C160.551 39.2154 160.378 39.1334 160.087 39.0969L158.583 38.9056ZM193.152 51.2346V52H185.798V51.2346L187.302 51.0432C187.593 51.0068 187.767 50.9339 187.821 50.8245C187.876 50.6969 187.903 50.3233 187.903 49.7037V42.8148C187.903 41.5573 187.73 40.646 187.384 40.0811C187.038 39.4979 186.518 39.2063 185.826 39.2063C185.534 39.2063 185.188 39.2883 184.787 39.4523C184.386 39.5981 183.985 39.8715 183.584 40.2724C183.201 40.6734 182.864 41.2657 182.573 42.0493V49.7037C182.573 50.3233 182.6 50.6969 182.655 50.8245C182.709 50.9339 182.882 51.0068 183.174 51.0432L184.678 51.2346V52H177.324V51.2346L178.827 51.0432C179.119 51.0068 179.292 50.9339 179.347 50.8245C179.401 50.6969 179.429 50.3233 179.429 49.7037V40.4364C179.429 39.8168 179.401 39.4523 179.347 39.343C179.292 39.2154 179.119 39.1334 178.827 39.0969L177.324 38.9056V38.1401H182.409V40.5458C182.919 39.6163 183.575 38.942 184.377 38.5228C185.179 38.0855 185.99 37.8668 186.81 37.8668C187.794 37.8668 188.623 38.1219 189.297 38.6322C189.99 39.1243 190.482 39.835 190.774 40.7645C191.266 39.7439 191.931 39.0058 192.769 38.5502C193.608 38.0946 194.446 37.8668 195.284 37.8668C196.578 37.8668 197.608 38.295 198.373 39.1516C199.139 40.0082 199.522 41.2201 199.522 42.7874V49.7037C199.522 50.3233 199.549 50.6969 199.604 50.8245C199.658 50.9339 199.831 51.0068 200.123 51.0432L201.626 51.2346V52H194.273V51.2346L195.776 51.0432C196.068 51.0068 196.241 50.9339 196.296 50.8245C196.35 50.6969 196.378 50.3233 196.378 49.7037V42.8148C196.378 41.5573 196.205 40.646 195.858 40.0811C195.512 39.4979 194.993 39.2063 194.3 39.2063C194.009 39.2063 193.662 39.2883 193.261 39.4523C192.86 39.5981 192.459 39.8806 192.059 40.2998C191.658 40.7189 191.311 41.3294 191.02 42.1313C191.038 42.2225 191.047 42.3318 191.047 42.4594C191.047 42.5687 191.047 42.6781 191.047 42.7874V49.7037C191.047 50.3233 191.074 50.6969 191.129 50.8245C191.184 50.9339 191.357 51.0068 191.648 51.0432L193.152 51.2346ZM214.881 48.7469C214.553 50.0226 213.942 50.9339 213.049 51.4806C212.156 52.0091 211.118 52.2734 209.933 52.2734C207.746 52.2734 206.106 51.6446 205.012 50.3871C203.919 49.1114 203.372 47.4256 203.372 45.3298V44.783C203.372 42.6872 203.882 41.0105 204.903 39.753C205.942 38.4955 207.436 37.8668 209.386 37.8668C210.48 37.8668 211.446 38.0855 212.284 38.5228C213.14 38.942 213.806 39.5525 214.279 40.3544C214.772 41.1563 215.018 42.1313 215.018 43.2795C215.018 43.5529 214.999 43.8445 214.963 44.1543C214.945 44.4641 214.899 44.7739 214.826 45.0837H206.734V45.8765C206.734 47.8083 207.008 49.2025 207.555 50.0591C208.101 50.8974 208.985 51.3166 210.206 51.3166C210.99 51.3166 211.655 51.0888 212.202 50.6331C212.749 50.1593 213.058 49.3665 213.131 48.2548L214.881 48.7469ZM209.386 38.8236C208.493 38.8236 207.828 39.2336 207.391 40.0537C206.953 40.8738 206.734 42.2316 206.734 44.1269H211.682C211.755 43.7624 211.801 43.4253 211.819 43.1155C211.856 42.7874 211.874 42.4867 211.874 42.2133C211.874 41.047 211.646 40.1904 211.19 39.6437C210.735 39.0969 210.133 38.8236 209.386 38.8236ZM223.254 46.8333L221.368 46.3959C220.147 46.1043 219.236 45.5849 218.634 44.8377C218.051 44.0723 217.759 43.1701 217.759 42.1313C217.759 41.3659 217.923 40.6642 218.251 40.0264C218.598 39.3703 219.135 38.8509 219.864 38.4682C220.593 38.0672 221.541 37.8668 222.707 37.8668C223.965 37.8668 224.985 38.0672 225.769 38.4682C226.553 38.8691 227.109 39.3976 227.437 40.0537C227.765 40.7098 227.865 41.4115 227.737 42.1587L224.73 42.7054C224.985 41.4661 224.913 40.5093 224.512 39.835C224.129 39.1607 223.482 38.8236 222.571 38.8236C221.933 38.8236 221.404 39.0149 220.985 39.3976C220.566 39.7621 220.356 40.2906 220.356 40.9832C220.356 41.621 220.539 42.186 220.903 42.6781C221.268 43.1519 221.805 43.4708 222.516 43.6349L224.402 44.0723C225.751 44.3821 226.726 44.8741 227.327 45.5485C227.929 46.2046 228.229 47.0247 228.229 48.0088C228.229 49.2298 227.774 50.2504 226.863 51.0705C225.97 51.8724 224.63 52.2734 222.844 52.2734C222.224 52.2734 221.541 52.1822 220.794 52C220.065 51.7995 219.391 51.4441 218.771 50.9339C218.169 50.4236 217.732 49.6946 217.459 48.7469L219.236 48.0361C219.363 49.239 219.773 50.0864 220.466 50.5785C221.177 51.0705 221.969 51.3166 222.844 51.3166C223.664 51.3166 224.329 51.1343 224.84 50.7698C225.368 50.3871 225.632 49.8404 225.632 49.1296C225.632 48.6375 225.459 48.191 225.113 47.7901C224.785 47.3709 224.165 47.052 223.254 46.8333ZM236.389 46.8333L234.502 46.3959C233.281 46.1043 232.37 45.5849 231.769 44.8377C231.186 44.0723 230.894 43.1701 230.894 42.1313C230.894 41.3659 231.058 40.6642 231.386 40.0264C231.732 39.3703 232.27 38.8509 232.999 38.4682C233.728 38.0672 234.676 37.8668 235.842 37.8668C237.1 37.8668 238.12 38.0672 238.904 38.4682C239.687 38.8691 240.243 39.3976 240.571 40.0537C240.899 40.7098 241 41.4115 240.872 42.1587L237.865 42.7054C238.12 41.4661 238.047 40.5093 237.646 39.835C237.264 39.1607 236.617 38.8236 235.705 38.8236C235.067 38.8236 234.539 39.0149 234.12 39.3976C233.701 39.7621 233.491 40.2906 233.491 40.9832C233.491 41.621 233.673 42.186 234.038 42.6781C234.402 43.1519 234.94 43.4708 235.651 43.6349L237.537 44.0723C238.886 44.3821 239.861 44.8741 240.462 45.5485C241.063 46.2046 241.364 47.0247 241.364 48.0088C241.364 49.2298 240.908 50.2504 239.997 51.0705C239.104 51.8724 237.765 52.2734 235.979 52.2734C235.359 52.2734 234.676 52.1822 233.928 52C233.199 51.7995 232.525 51.4441 231.905 50.9339C231.304 50.4236 230.867 49.6946 230.593 48.7469L232.37 48.0361C232.498 49.239 232.908 50.0864 233.6 50.5785C234.311 51.0705 235.104 51.3166 235.979 51.3166C236.799 51.3166 237.464 51.1343 237.974 50.7698C238.503 50.3871 238.767 49.8404 238.767 49.1296C238.767 48.6375 238.594 48.191 238.248 47.7901C237.92 47.3709 237.3 47.052 236.389 46.8333ZM257.232 51.3166C256.941 51.5899 256.585 51.8178 256.166 52C255.765 52.1822 255.273 52.2734 254.69 52.2734C253.943 52.2734 253.314 52.1093 252.804 51.7813C252.312 51.4533 251.984 50.9885 251.82 50.3871C251.218 51.0432 250.553 51.5262 249.824 51.836C249.113 52.1276 248.384 52.2734 247.637 52.2734C246.38 52.2734 245.441 51.9271 244.821 51.2346C244.202 50.5238 243.892 49.6399 243.892 48.5829C243.892 47.5076 244.284 46.6419 245.067 45.9859C245.851 45.3115 247.236 44.9744 249.223 44.9744H251.71V42.7601C251.71 41.2474 251.51 40.2177 251.109 39.671C250.726 39.106 250.189 38.8236 249.496 38.8236C249.04 38.8236 248.621 38.942 248.238 39.1789C247.856 39.3976 247.582 39.8168 247.418 40.4364C247.273 41.0379 247.3 41.9126 247.5 43.0608L244.493 42.6234C244.348 41.7851 244.439 41.0105 244.767 40.2998C245.113 39.5708 245.687 38.9876 246.489 38.5502C247.291 38.0946 248.311 37.8668 249.551 37.8668C250.954 37.8668 252.038 38.0946 252.804 38.5502C253.569 39.0058 254.098 39.6072 254.389 40.3544C254.699 41.1016 254.854 41.9035 254.854 42.7601V49.0749C254.854 50.0044 254.936 50.5876 255.1 50.8245C255.264 51.0614 255.446 51.1799 255.647 51.1799C255.975 51.1799 256.339 50.9885 256.74 50.6058L257.232 51.3166ZM248.84 50.8245C249.314 50.8245 249.778 50.706 250.234 50.4691C250.708 50.214 251.2 49.7493 251.71 49.0749V45.9312H249.66C248.767 45.9312 248.12 46.1408 247.719 46.5599C247.318 46.9791 247.118 47.6352 247.118 48.5282C247.118 49.2572 247.263 49.8222 247.555 50.2231C247.847 50.624 248.275 50.8245 248.84 50.8245ZM271.341 53.4215C271.341 54.9159 270.776 56.0641 269.646 56.866C268.534 57.6861 267.003 58.0962 265.053 58.0962C262.903 58.0962 261.299 57.7408 260.242 57.03C259.185 56.3375 258.611 55.4718 258.52 54.433L261.445 53.9683C261.372 54.9342 261.6 55.6996 262.128 56.2646C262.675 56.8478 263.65 57.1394 265.053 57.1394C266.365 57.1394 267.422 56.8933 268.224 56.4013C269.044 55.9092 269.454 55.1984 269.454 54.269C269.454 53.6129 269.208 53.1117 268.716 52.7654C268.242 52.4374 267.45 52.2734 266.338 52.2734H263.222C262.256 52.2734 261.49 52.1367 260.925 51.8633C260.378 51.5899 259.996 51.2528 259.777 50.8518C259.558 50.4327 259.449 50.0044 259.449 49.567C259.449 49.0385 259.595 48.5191 259.886 48.0088C260.178 47.4803 260.679 46.9609 261.39 46.4506C260.606 46.1043 259.968 45.594 259.476 44.9197C258.984 44.2454 258.738 43.4071 258.738 42.4047C258.738 41.3841 258.975 40.5458 259.449 39.8897C259.923 39.2154 260.561 38.7142 261.363 38.3862C262.164 38.0399 263.058 37.8668 264.042 37.8668H264.506C265.563 37.8668 266.475 38.0399 267.24 38.3862L271.177 36.4452L271.505 39.1243H268.388C268.826 39.507 269.163 39.9717 269.4 40.5184C269.655 41.047 269.782 41.6757 269.782 42.4047C269.782 43.3888 269.545 44.2181 269.072 44.8924C268.598 45.5667 267.96 46.077 267.158 46.4232C266.374 46.7695 265.49 46.9427 264.506 46.9427H264.042C263.495 46.9427 262.957 46.888 262.429 46.7786C261.973 47.0884 261.654 47.3892 261.472 47.6807C261.308 47.9541 261.226 48.2184 261.226 48.4735C261.226 48.7651 261.353 48.9838 261.609 49.1296C261.882 49.2754 262.319 49.3483 262.921 49.3483H266.475C268.042 49.3483 269.245 49.7037 270.083 50.4145C270.921 51.107 271.341 52.1093 271.341 53.4215ZM264.506 45.9859C265.09 45.9859 265.591 45.7307 266.01 45.2204C266.429 44.7101 266.639 43.7716 266.639 42.4047C266.639 41.0379 266.429 40.0993 266.01 39.589C265.591 39.0787 265.09 38.8236 264.506 38.8236H264.042C263.458 38.8236 262.948 39.0787 262.511 39.589C262.092 40.0993 261.882 41.0379 261.882 42.4047C261.882 43.7716 262.092 44.7101 262.511 45.2204C262.948 45.7307 263.458 45.9859 264.042 45.9859H264.506ZM284.879 48.7469C284.551 50.0226 283.94 50.9339 283.047 51.4806C282.154 52.0091 281.115 52.2734 279.931 52.2734C277.744 52.2734 276.103 51.6446 275.01 50.3871C273.916 49.1114 273.37 47.4256 273.37 45.3298V44.783C273.37 42.6872 273.88 41.0105 274.901 39.753C275.939 38.4955 277.434 37.8668 279.384 37.8668C280.477 37.8668 281.443 38.0855 282.282 38.5228C283.138 38.942 283.803 39.5525 284.277 40.3544C284.769 41.1563 285.015 42.1313 285.015 43.2795C285.015 43.5529 284.997 43.8445 284.961 44.1543C284.942 44.4641 284.897 44.7739 284.824 45.0837H276.732V45.8765C276.732 47.8083 277.006 49.2025 277.552 50.0591C278.099 50.8974 278.983 51.3166 280.204 51.3166C280.988 51.3166 281.653 51.0888 282.2 50.6331C282.746 50.1593 283.056 49.3665 283.129 48.2548L284.879 48.7469ZM279.384 38.8236C278.491 38.8236 277.826 39.2336 277.388 40.0537C276.951 40.8738 276.732 42.2316 276.732 44.1269H281.68C281.753 43.7624 281.799 43.4253 281.817 43.1155C281.853 42.7874 281.872 42.4867 281.872 42.2133C281.872 41.047 281.644 40.1904 281.188 39.6437C280.733 39.0969 280.131 38.8236 279.384 38.8236Z" fill="black"/>
</svg>
