<svg width="44" height="39" viewBox="0 0 44 39" fill="none" xmlns="http://www.w3.org/2000/svg">
<path d="M5.07571 38.9231C3.68028 38.9231 2.486 38.5807 1.49286 37.8959C0.497619 37.2126 0 36.3909 0 35.4308V16.4666C0 15.5065 0.497619 14.6848 1.49286 14.0015C2.486 13.3167 3.68028 12.9744 5.07571 12.9744H9.42857V8.64957C9.42857 6.24067 10.648 4.19649 13.0869 2.51703C15.5257 0.837569 18.4968 -0.00143974 22 1.85454e-06C25.5011 1.85454e-06 28.4722 0.83901 30.9131 2.51703C33.3541 4.19504 34.5735 6.23923 34.5714 8.64957V12.9744H38.9243C40.3197 12.9744 41.514 13.3167 42.5071 14.0015C43.5024 14.6848 44 15.5065 44 16.4666V35.4308C44 36.3909 43.5024 37.2126 42.5071 37.8959C41.514 38.5807 40.3197 38.9231 38.9243 38.9231H5.07571ZM22 29.1923C23.3263 29.1923 24.443 28.8795 25.3503 28.2538C26.2596 27.6296 26.7143 26.8612 26.7143 25.9487C26.7143 25.0362 26.2596 24.2678 25.3503 23.6436C24.443 23.018 23.3263 22.7051 22 22.7051C20.6737 22.7051 19.5569 23.018 18.6497 23.6436C17.7404 24.2678 17.2857 25.0362 17.2857 25.9487C17.2857 26.8612 17.7404 27.6296 18.6497 28.2538C19.5569 28.8795 20.6737 29.1923 22 29.1923ZM12.5714 12.9744H31.4286V8.64957C31.4286 6.84758 30.5119 5.31588 28.6786 4.05449C26.8452 2.79309 24.619 2.16239 22 2.16239C19.381 2.16239 17.1548 2.79309 15.3214 4.05449C13.4881 5.31588 12.5714 6.84758 12.5714 8.64957V12.9744Z" fill="black"/>
</svg>
