<svg width="72" height="70" viewBox="0 0 72 70" fill="none" xmlns="http://www.w3.org/2000/svg">
<path d="M71 35C71 53.7513 55.3567 69 36 69C16.6433 69 1 53.7513 1 35C1 16.2487 16.6433 1 36 1C55.3567 1 71 16.2487 71 35Z" fill="#FFB800" stroke="black" stroke-width="2"/>
<path fill-rule="evenodd" clip-rule="evenodd" d="M38.4408 21.4387C38.722 21.1578 39.1033 21 39.5008 21C39.8983 21 40.2796 21.1578 40.5609 21.4387L52.5613 33.4392C52.8422 33.7204 53 34.1017 53 34.4992C53 34.8967 52.8422 35.278 52.5613 35.5592L40.5609 47.5597C40.4235 47.7071 40.2579 47.8253 40.0739 47.9073C39.8899 47.9892 39.6913 48.0333 39.4899 48.0369C39.2884 48.0404 39.0884 48.0034 38.9016 47.9279C38.7148 47.8525 38.5451 47.7402 38.4027 47.5978C38.2603 47.4553 38.148 47.2856 38.0725 47.0989C37.9971 46.9121 37.96 46.712 37.9636 46.5106C37.9671 46.3092 38.0112 46.1105 38.0932 45.9265C38.1752 45.7425 38.2934 45.5769 38.4408 45.4396L47.8811 35.9992H19.5001C19.1022 35.9992 18.7207 35.8412 18.4394 35.5599C18.158 35.2786 18 34.897 18 34.4992C18 34.1014 18.158 33.7198 18.4394 33.4385C18.7207 33.1572 19.1022 32.9991 19.5001 32.9991H47.8811L38.4408 23.5588C38.1599 23.2775 38.0021 22.8963 38.0021 22.4987C38.0021 22.1012 38.1599 21.72 38.4408 21.4387Z" fill="black"/>
</svg>
