<svg width="41" height="62" viewBox="0 0 41 62" fill="none" xmlns="http://www.w3.org/2000/svg">
<path d="M5.38628 53.5888C6.22114 53.5888 6.89402 53.3832 7.4049 52.972C7.92825 52.5608 8.18992 51.9565 8.18992 51.159C8.18992 50.5235 7.99678 49.9939 7.6105 49.5703C7.22422 49.1341 6.55135 48.7852 5.59188 48.5236L4.30221 48.1497C3.3552 47.8881 2.63249 47.4457 2.13406 46.8227C1.63564 46.1997 1.38643 45.4396 1.38643 44.5424C1.38643 43.9443 1.52349 43.3836 1.79763 42.8602C2.08422 42.3369 2.51411 41.9132 3.0873 41.5892C3.67295 41.2653 4.41436 41.1033 5.31152 41.1033C6.30837 41.1033 7.11208 41.2902 7.72265 41.664C8.33322 42.0254 8.75688 42.4989 8.99363 43.0845C9.23038 43.6702 9.28645 44.2994 9.16185 44.9723L7.59181 45.3087C7.7538 44.1499 7.63542 43.259 7.23668 42.6359C6.8504 42.0129 6.17753 41.7014 5.21806 41.7014C4.45797 41.7014 3.85986 41.907 3.42374 42.3182C2.98762 42.7169 2.76956 43.3026 2.76956 44.0751C2.76956 44.6857 2.944 45.209 3.2929 45.6452C3.6418 46.0688 4.2586 46.4053 5.1433 46.6545L6.43297 47.0283C8.5139 47.6015 9.55436 48.8164 9.55436 50.673C9.55436 51.3334 9.3986 51.9315 9.08708 52.4673C8.78803 52.9907 8.32699 53.4081 7.70396 53.7196C7.09339 54.0312 6.32083 54.1869 5.38628 54.1869C4.73833 54.1869 4.1153 54.0872 3.51719 53.8879C2.93154 53.6885 2.42689 53.3458 2.00323 52.8599C1.59203 52.3739 1.31789 51.701 1.18083 50.8412L2.30228 50.4674C2.36459 51.2898 2.54526 51.9253 2.84432 52.3739C3.14337 52.8225 3.51719 53.1402 3.96577 53.3271C4.41436 53.5016 4.88786 53.5888 5.38628 53.5888ZM19.9437 50.9534H20.4297V54H11.4767V53.514L12.5047 53.4019C12.7041 53.377 12.8225 53.3271 12.8599 53.2524C12.8973 53.1776 12.9159 52.9222 12.9159 52.486V42.8041C12.9159 42.368 12.8973 42.1126 12.8599 42.0378C12.8225 41.9631 12.7041 41.9132 12.5047 41.8883L11.4767 41.7948V41.2902H20.1867V44.3368H19.7194L19.1774 42.3743C19.14 42.2247 19.0964 42.1188 19.0466 42.0565C19.0092 41.9817 18.9282 41.9381 18.8036 41.9257C18.679 41.9008 18.4671 41.8883 18.1681 41.8883H14.5421V47.29H17.0466C17.3457 47.29 17.5575 47.2837 17.6821 47.2713C17.8067 47.2464 17.8877 47.2027 17.9251 47.1404C17.975 47.0657 18.0186 46.9535 18.0559 46.804L18.4111 45.4022H18.897V49.7759H18.4111L18.0559 48.374C18.0186 48.2245 17.975 48.1186 17.9251 48.0563C17.8877 47.9815 17.8067 47.9379 17.6821 47.9255C17.5575 47.9005 17.3457 47.8881 17.0466 47.8881H14.5421V53.4019H18.3924C18.6914 53.4019 18.9033 53.3957 19.0279 53.3832C19.1525 53.3583 19.2335 53.3147 19.2709 53.2524C19.3207 53.1776 19.3643 53.0655 19.4017 52.9159L19.9437 50.9534ZM30.3186 50.916H30.8233V54H22.3189V53.514L23.3469 53.4019C23.5463 53.377 23.6647 53.3271 23.7021 53.2524C23.7394 53.1776 23.7581 52.9222 23.7581 52.486V42.8041C23.7581 42.368 23.7394 42.1126 23.7021 42.0378C23.6647 41.9631 23.5463 41.9132 23.3469 41.8883L22.3189 41.7948V41.2902H26.8234V41.7948L25.7954 41.8883C25.5961 41.9132 25.4777 41.9631 25.4403 42.0378C25.4029 42.1126 25.3842 42.368 25.3842 42.8041V53.4019H28.7673C29.0664 53.4019 29.2782 53.3957 29.4028 53.3832C29.5274 53.3583 29.6084 53.3147 29.6458 53.2524C29.6956 53.1776 29.7392 53.0655 29.7766 52.9159L30.3186 50.916ZM39.9379 50.916H40.4425V54H31.9382V53.514L32.9662 53.4019C33.1655 53.377 33.2839 53.3271 33.3213 53.2524C33.3587 53.1776 33.3774 52.9222 33.3774 52.486V42.8041C33.3774 42.368 33.3587 42.1126 33.3213 42.0378C33.2839 41.9631 33.1655 41.9132 32.9662 41.8883L31.9382 41.7948V41.2902H36.4427V41.7948L35.4147 41.8883C35.2153 41.9132 35.0969 41.9631 35.0596 42.0378C35.0222 42.1126 35.0035 42.368 35.0035 42.8041V53.4019H38.3865C38.6856 53.4019 38.8974 53.3957 39.022 53.3832C39.1466 53.3583 39.2276 53.3147 39.265 53.2524C39.3149 53.1776 39.3585 53.0655 39.3959 52.9159L39.9379 50.916Z" fill="black"/>
<path d="M11.8969 0L5 7.57779H9.13811V13.8926H14.6556V7.57779H18.7937L11.8969 0ZM31.208 0V6.31482H27.0699L33.9668 13.8926L40.8636 6.31482H36.7255V0H31.208ZM38.1132 16.1742C37.658 16.1836 37.2328 16.3649 36.6528 16.9316L36.087 17.4817L35.4997 16.9513C34.8628 16.3766 34.3603 16.218 33.8509 16.2385C33.3416 16.259 32.7427 16.5041 32.0728 17.0005L31.5367 17.3977L31.0275 16.9734C30.2602 16.3378 29.6063 16.1495 28.98 16.1791C28.5241 16.2008 28.0511 16.358 27.5791 16.633L31.111 22.4495C32.4433 23.1956 35.1658 23.4764 37.038 22.6125L40.4515 16.8229C39.804 16.5812 39.2221 16.3335 38.7191 16.2385C38.5371 16.204 38.368 16.1787 38.2045 16.1742C38.174 16.1734 38.1435 16.1734 38.1131 16.1742H38.1132ZM8.44843 16.4185C5 16.4185 5 16.4185 5 19.576V32.2099C5 35.363 5 35.363 8.44843 35.363H15.3453C18.7937 35.363 18.7937 35.363 18.7937 32.2056V19.576C18.7937 16.4185 18.7937 16.4185 15.3453 16.4185H8.44843ZM30.3567 23.7669V23.7671C28.8019 24.7729 27.5535 26.5075 27.0699 29.0482C26.6014 31.5107 27.3395 33.1737 28.6459 34.3071C29.9525 35.4406 31.9135 36.023 33.9048 35.9993C35.8963 35.9756 37.8822 35.3434 39.2175 34.1888C40.5529 33.0343 41.3082 31.3926 40.8799 29.0432C40.4371 26.6154 39.2936 24.927 37.8461 23.9051C35.3906 25.0935 32.3206 24.8409 30.3567 23.7669Z" fill="#111111"/>
</svg>
