<svg width="16" height="14" viewBox="0 0 16 14" fill="none" xmlns="http://www.w3.org/2000/svg">
<path d="M0 1C0 0.447715 0.447715 0 1 0H8.5C9.05228 0 9.5 0.447715 9.5 1V1C9.5 1.55228 9.05228 2 8.5 2H1C0.447715 2 0 1.55228 0 1V1ZM0 5C0 4.44772 0.447715 4 1 4H15C15.5523 4 16 4.44772 16 5V5C16 5.55228 15.5523 6 15 6H1C0.447715 6 0 5.55228 0 5V5ZM0 9C0 8.44772 0.447715 8 1 8H11C11.5523 8 12 8.44772 12 9V9C12 9.55228 11.5523 10 11 10H1C0.447715 10 0 9.55228 0 9V9ZM0 13C0 12.4477 0.447715 12 1 12H15C15.5523 12 16 12.4477 16 13V13C16 13.5523 15.5523 14 15 14H1C0.447715 14 0 13.5523 0 13V13Z" fill="black"/>
</svg>
