<svg width="47" height="34" viewBox="0 0 47 34" fill="none" xmlns="http://www.w3.org/2000/svg">
<path d="M39.3415 1.48818L23.2091 21.2612L7.07672 1.48818C6.69178 1.01637 6.23479 0.642109 5.73184 0.386767C5.22889 0.131426 4.68983 4.97133e-09 4.14544 0C3.60106 -4.9713e-09 3.062 0.131426 2.55905 0.386767C2.0561 0.642109 1.59911 1.01637 1.21417 1.48818C0.829233 1.95998 0.523882 2.5201 0.315554 3.13655C0.107226 3.753 -4.056e-09 4.41371 0 5.08094C4.05601e-09 5.74818 0.107226 6.40889 0.315554 7.02534C0.523882 7.64179 0.829233 8.20191 1.21417 8.67371L20.2986 32.0649C21.9202 34.0524 24.5396 34.0524 26.1612 32.0649L45.2456 8.67371C45.6311 8.20225 45.9369 7.64225 46.1455 7.02575C46.3541 6.40926 46.4615 5.74838 46.4615 5.08094C46.4615 4.41351 46.3541 3.75263 46.1455 3.13614C45.9369 2.51964 45.6311 1.95964 45.2456 1.48818C43.6241 -0.448353 40.963 -0.499314 39.3415 1.48818Z" fill="#111111"/>
</svg>
